<?xml version="1.0" encoding="utf-8"?>
<!-- Generator: Adobe Illustrator 23.0.3, SVG Export Plug-In . SVG Version: 6.00 Build 0)  -->
<svg version="1.1" id="Draw_Layer" xmlns="http://www.w3.org/2000/svg" xmlns:xlink="http://www.w3.org/1999/xlink" x="0px" y="0px"
	 viewBox="0 0 1468.3 921.6" style="enable-background:new 0 0 1468.3 921.6;" xml:space="preserve">
<style type="text/css">
	.st0{fill:#161616;}
</style>
<path class="st0" d="M961.4,8.3H961c-1.3-0.2-2.6-0.2-3.9-0.2l-0.1,0c-19.7,0.2-39.5,1.7-59.1,4.5c-0.2,0-0.3,0-0.5,0.1
	c-12.2,1.8-24.5,4.1-36.5,6.9l-0.3,0.1c-5,1.2-9.8,2.4-14.5,3.6c-0.5,0.1-1,0.3-1.5,0.4c-1.8,0.3-3.5,0.7-5.3,1.1
	c-12.7,2.7-25.5,6.2-37.9,10.2l-0.3,0.1l-0.2,0.1c-1,0.3-2,0.7-3,1c-17,5.7-33.9,12.7-50.3,20.9l-0.1,0.1l-0.5,0.2l-0.6,0.3
	l-0.4,0.2l-0.3,0.1l-0.3,0.1l-0.2,0.1l-0.2,0.1c-0.2,0.1-0.3,0.2-0.5,0.2l-0.3,0.1l-0.2,0.1l-0.2,0.1l-0.2,0.1
	c-4.8,2.4-9.7,5.1-14.7,8c-2.6,1.5-4.9,2.8-6.8,4c-0.2,0.1-0.3,0.2-0.5,0.2l-0.1,0.1l-0.1,0.1l-0.4,0.2l-0.1,0.1
	c-0.1,0.1-0.2,0.1-0.3,0.2c-0.2,0.1-0.3,0.2-0.5,0.3l-0.3,0.2l-0.5,0.3l-0.2,0.1l-0.2,0.1l-0.5,0.3l-0.2,0.1l-0.2,0.1l-0.4,0.2
	l-0.2,0.1l-0.2,0.1l-0.2,0.1l-0.2,0.1l-0.4,0.2l-0.4,0.2l-0.8,0.5l-0.8,0.4l-0.2,0.1l-0.2,0.1c-3,1.7-6,3.5-8.9,5.2
	c-0.1,0.1-0.2,0.1-0.3,0.2l-0.9,0.6l-0.2,0.1l-0.5,0.3l-0.2,0.1l-0.2,0.1c-6.8,4.1-13.6,8.6-20.2,13.2c-3,2.1-5.7,4-8.5,6
	c-0.1,0.1-0.2,0.1-0.2,0.2c-1.3,1-2.7,2-4,3c-6.2,4.2-12.5,8.7-18.6,13.3c-0.1,0-0.1,0.1-0.1,0.1l-0.8,0.6l-0.6,0.4l-0.5,0.4
	l-0.2,0.1l-0.1,0.1c-13.3,10.2-25.8,20.9-37,31.7c-8.3,8-16.5,16.6-24.3,25.5l-0.2,0.2c-0.7,0.8-1.4,1.6-2.1,2.4l-0.1,0.1l-0.1,0.1
	l-0.7,0.9l-0.1,0.1c-1.8,1.9-3.7,3.7-5.4,5.5c-3.4,3.5-6.8,7.2-10.4,11.3c-0.1,0.1-0.2,0.3-0.3,0.4l-0.2,0.2l-0.2,0.2l-0.2,0.2
	l-0.1,0.1l-0.2,0.2l-0.3,0.3l-0.3,0.4l-0.4,0.5c-0.1,0.1-0.2,0.3-0.3,0.4l-0.3,0.4l-0.4,0.5l-0.4,0.4l-0.2,0.2l-0.3,0.3l-0.3,0.3
	l-0.3,0.4l-0.3,0.4l-0.4,0.5l-0.4,0.4c0,0-0.1,0.1-0.1,0.1l-0.2,0.2l-0.5,0.5L562,205l-0.1,0.1l-0.5,0.6l-0.1,0.1l-0.1,0.1l-0.3,0.3
	l-0.3,0.4l-0.1,0.1l-0.4,0.5l-0.3,0.3c-5.5,6.6-10.8,13.5-15.8,20.4c-0.1,0.1-0.2,0.2-0.3,0.3l-0.7,1l-0.7,1l-0.1,0.1
	c-1,1.4-2,2.9-3,4.3l-0.1,0.1c-1.9,2.7-3.8,5.5-5.6,8.4c-3.7,5.6-7.3,11.4-10.7,17.3c-0.1,0.1-0.1,0.2-0.2,0.3
	c-2.8,4.8-5.6,9.9-8.2,14.9c-5.3,10.1-10.2,20.5-14.5,31.1c-3.8,7.9-7.5,16.1-10.8,24.4c-0.9,2.3-1.8,4.6-2.7,6.8
	c-1.5,4-3,8.1-4.4,12.1c-1.7,4.9-3.3,9.9-4.8,14.9c-3.2,10.6-5.9,21.5-8.2,32.4c-2.6,0.1-5.6,0.4-9,0.8c-7.2,0.8-14.3,2-21.3,3.5
	c-4.3,0.8-12.8,2.6-12.8,2.6s-0.3,0-0.4,0c-0.1,0-0.1,0-0.2,0c-0.9,0.2-1.8,0.4-2.7,0.7c-0.7,0.2-1.5,0.4-2.2,0.6
	c-6.7,1.8-13.4,4-20.1,6.5c-4.6,1.7-9.3,3.6-13.9,5.7l-0.4,0.2l-0.7,0.3c-7.7,3.5-15.4,7.5-22.9,11.9c-13.2,7.8-25.7,17.1-37.4,27.6
	c-1.1,0.9-2.1,1.9-3.1,2.9c-10.5,9.8-20.4,20.9-29.2,33l-0.1,0.2l-0.3,0.5l-0.1,0.1l-0.2,0.3l-0.1,0.1l-0.1,0.1l-0.2,0.3l-0.2,0.2
	l-0.2,0.3l-0.2,0.3l-0.1,0.1l-0.4,0.5l-0.1,0.2l-0.2,0.3l-0.1,0.1l-0.1,0.2l-0.1,0.2l-0.1,0.1l-1,1.4l-0.1,0.1l-0.1,0.1l-0.1,0.1
	l-0.2,0.3l-0.8,1.2l-0.1,0.2l-0.1,0.2l-0.1,0.2l-0.1,0.1l-0.9,1.3c-4.6,6.7-8.9,13.8-12.8,21.1c0,0,0,0-0.1,0c-0.3,0-0.6,0-0.9,0.1
	c-0.9,0.2-2,0.9-2.4,1.9c-2.8,6.3-5.3,12.6-7.5,19c-0.1,0.1-0.1,0.2-0.1,0.4c-0.4,1.1-0.7,2.2-1.1,3.3l-0.2,0.5
	c-0.2,0.7-0.5,1.4-0.7,2.2l-0.4,1.2l-0.2,0.5l0,0.1c-2.1,7-4,14.4-5.5,21.9c-0.6,2.2-1.2,4.4-1.7,6.5l-0.2,1c0,0.1-0.1,0.2-0.1,0.3
	l0,0.1l0,0.2c-0.1,0.3-0.1,0.5-0.2,0.7l-0.1,0.3l0,0.1c-0.1,0.3-0.1,0.5-0.2,0.7l0,0.2l-0.1,0.5l-0.1,0.4l-0.1,0.3l-0.1,0.3
	c0,0,0,0.1,0,0.1l-0.1,0.5l-0.1,0.4l0,0.2l0,0.1l0,0.1l0,0.2l0,0.2c-0.6,2.9-1.2,5.9-1.7,8.9l0,0.2c-0.1,0.3-0.1,0.7-0.2,1l-0.2,1
	c0,0.1,0,0.2,0,0.2l-0.1,0.6l-0.1,0.6l-0.1,1.1l-0.2,1.4c0,0.7,0.1,1.5,0.3,2.2c-0.7,5.2-1.2,10.2-1.5,15l0,0.2l0,0.2l0,0.3l0,0.3
	l-0.1,1l0,0.2l0,0.2l0,0.5l0,0.4l0,0.4l0,0.1l0,0.1c0,0.2,0,0.3,0,0.5l0,0.7l0,0.7c0,0,0,0.1,0,0.1c0,0.6,0,1.1-0.1,1.6l0,0.2l0,0.7
	l0,0.7l0,0.3l0,1.1l0,0.2l0,0.8v0.4v0.3l0.2,0.5c0,0.1,0,0.2,0,0.3c0,0.8,0,1.6,0,2.4l0,0.2c0,0.5,0,1.1,0,1.6c0,0.1,0,0.1,0,0.2
	c-0.8,1.5-1.1,3-1.1,4.6c0.7,5,1.3,9.1,1.9,12.9l0,0.2l0.1,0.7c1,12.4,3.1,24.9,6.1,37.1l0.1,0.4l0.3,1.1c0,0.1,0,0.1,0.1,0.3
	l0.1,0.3l0.1,0.3l0,0.2l0,0.1c0.4,1.6,0.8,3.1,1.3,4.7l0,0.2c0.1,0.4,0.2,0.9,0.4,1.3c2.5,8.7,5.6,17.4,9.2,25.9
	c0.2,0.6,0.4,1.1,0.7,1.6c0,0.1,0.1,0.2,0.1,0.3c0.2,0.4,0.4,0.9,0.6,1.3c0.1,0.1,0.1,0.2,0.2,0.4c2.3,5.1,4.7,10.2,7.4,15.2
	l0.1,0.1l-0.8,0c-2.8,0.3-5.8,0.7-8.7,1.2l-0.1,0l-0.2,0l-0.2,0l-0.1,0c-5,1-9.9,2.3-14.6,4l-0.1,0c0,0-0.1,0-0.1,0
	c-7.6,2.7-14.6,6.2-21,10.4c-5.1,3.3-9.9,7.1-14.4,11.4l-0.1,0.1l-0.1,0.1l-0.5,0.4l-0.5,0.4c-0.7,0.6-1.3,1.2-2,1.7
	c-6.4,5.8-12.2,12.7-17.2,20.5c-0.7,1.1-1.4,2.3-2.1,3.5c-1.7,2.7-3.2,5.4-4.6,8.2c-1.6,3.2-3.1,6.6-4.5,10.3l-0.1,0.2
	c-0.1,0.2-0.1,0.3-0.2,0.5c-1,2.6-1.8,5.3-2.5,8l0,0.1c-0.5,1.9-1,3.8-1.4,5.8l-0.1,0.4c0,0.1,0,0.2-0.1,0.4l-0.1,0.8l-0.1,0.4
	l0,0.1l0,0.1l0,0.1l0,0l0,0.1l0,0.2l0,0.2l0,0.2l0,0.2c-0.3,1.7-0.5,3.4-0.7,5l0,0.2c0,0.2-0.1,0.5-0.1,0.7l0,0.1l-0.1,1.2l0,0.2
	l0,0.1l0,0.2l0,0.1l0,0.1c-0.2,2-0.3,3.7-0.3,5.3l0,0.1c0,0.2,0,0.3,0,0.5l0,0.4l0,0.3l-0.6,0.2v0.2c0.5,2.5,0.6,5,0.7,7.5
	c0,0.2,0,0.4,0,0.5l0,0.1c0.1,1.3,0.2,2.8,0.4,4.5l0,0.1l0,0.2l0,0.2c0,0.1,0,0.1,0,0.2l0,0.2l0,0.1l0,0.2c0,0.4,0.1,0.7,0.1,1.1
	l0,0.1l0,0.3l0.1,0.9c0.3,1.9,0.6,3.6,0.9,5.3c0,0.1,0,0.1,0,0.1l0.2,1.2l0,0.2l0,0.1c0,0.1,0,0.1,0,0.2l0,0.2l0,0.1
	c0.8,3.7,1.8,7.3,3,10.8c0,0.1,0,0.2,0.1,0.2c0.4,1.1,0.8,2.2,1.2,3.2c0,0.2,0.1,0.2,0.1,0.2c0.7,1.9,1.5,3.9,2.5,5.6l-6.4,1h-19.3
	h-48.7H67.8c-0.1,0-0.2,0-0.3,0c-0.1,0-0.2,0-0.3,0H67c-0.4,0.1-0.8,0.2-1.2,0.4l-0.1,0.1l-0.1,0.1c0,0,0,0,0,0c0,0,0,0-0.1,0
	l-0.1,0.1l-0.1,0.1l-0.1,0.1l-0.1,0.1l-0.1,0.1l-0.1,0.1l-0.2,0.1l-0.1,0.1l-0.2,0.1c-0.1,0.1-0.3,0.2-0.4,0.3l-0.2,0.2l-0.1,0.1
	l-0.1,0.1l-0.3,0.2c0,0-0.1,0.1-0.1,0.1c-0.6,0.7-1.2,1.5-1.7,2.3c-0.8,1.4-1.3,3.1-1.5,5.2c-0.1,0.9,0,2,0.3,3.4
	c0.1,0.4,0.2,0.9,0.5,1.4c0.3,0.6,0.5,1.2,0.8,1.8c0.3,0.6,0.7,1.1,1.2,1.7l0.1,0.1c0.1,0.1,0.1,0.1,0.1,0.1
	c0.1,0.1,0.1,0.2,0.2,0.3l0.1,0.1l0.1,0.1l0.1,0.1l0.1,0.1l0.1,0.1c0.1,0.1,0.1,0.1,0.2,0.2l0.1,0.1l0.1,0.1l0.1,0.1
	c0.3,0.3,0.5,0.4,0.7,0.5l0.2,0.1l0.1,0.1l0.1,0.1l0.2,0.1l0.1,0.1l0.1,0.1l0.1,0l0.2,0.1c0.4,0.2,0.7,0.3,1,0.3l233.4-1l233.8,1
	H1152h278.9l0.3-0.4l0.1-0.2l0.1-0.1l0.1-0.1l0.1-0.1l0.2-0.3l0.2-0.3l0.1-0.1l0.1-0.2l0.1-0.2l0.1-0.2l0.1-0.1l0.1-0.3c0,0,0,0,0,0
	c0,0,0,0,0.1-0.1l0.1-0.1l0.1-0.1l0.1-0.1l0.7-1.4l0.1-0.2c0-0.1,0.1-0.1,0.1-0.1l0.1-0.2l0.1-0.1l0.1-0.2l0.1-0.1l0-0.1l0-0.1
	l0.4-0.9l0.2-0.3l0.1-0.2c0.4-1,0.9-2,1.3-3c0.1-0.2,0.3-0.5,0.4-0.9c0.1-0.2,0.2-0.5,0.3-0.7c0.1-0.1,0.1-0.1,0.1-0.1l0-0.1
	l0.2-0.5l0-0.1c1-2.5,1.8-4.9,2.6-7.4l0-0.1l0.1-0.4l0.1-0.4l0-0.1l0.2-0.6l0-0.1c0.8-2.7,1.5-5.5,2.1-8.3l0-0.2l0-0.1l0-0.2
	c1.8-8.8,2.6-17.7,2.4-26.4c-0.2-8.2-1.3-16.6-3.4-25c-2.1-8.4-5.2-16.8-9.5-25c-3.9-7.6-9-15.1-15-22.1l-0.1-0.1l-0.3-0.3l-0.2-0.2
	l-0.1-0.1l-0.2-0.2l-0.2-0.2l-0.2-0.2l-0.1-0.1c-1.3-1.4-2.5-2.7-3.5-3.7l-0.1-0.1c-0.6-0.6-1.3-1.3-1.9-1.9l-0.1-0.1l-0.2-0.2
	l-0.1-0.1c-3.5-3.3-7.2-6.5-11.2-9.4c3.3-5.5,6.6-11.4,9.7-17.6c0.1-0.1,0.1-0.2,0.2-0.3c0.2-0.4,0.4-0.8,0.6-1.3
	c6.1-12,11.7-24.3,16.5-36.7c0.6-1.5,1.2-3.1,1.8-4.6c3.4-8.1,6.7-16.4,9.5-24.7c0.8-2.3,1.6-4.5,2.3-6.8c1.4-4.2,2.6-8.2,3.7-12.1
	l0-0.1l0-0.1l0-0.1l0.1-0.2l0.1-0.3l0.1-0.3c0.4-1.3,0.8-2.6,1.2-3.9c0.1-0.3,0.2-0.7,0.3-1c0,0,0-0.1,0-0.1c0.7-2.2,1.3-4.4,2-6.5
	l0.1-0.2c0.1-0.3,0.1-0.5,0.2-0.7l0-0.1l0.1-0.2l0.1-0.4l0-0.1l0.1-0.4c0.1-0.4,0.2-0.8,0.3-1.1l0.1-0.4l0.1-0.4l0.1-0.5l0.1-0.4
	l0.1-0.4l0.1-0.4l0-0.1l0.1-0.4l0-0.1l0.1-0.4l0.1-0.3l0.1-0.4l0-0.2c1.9-7.1,3.6-14.3,5.1-21.5l0.1-0.3l0-0.2l0-0.2
	c0.9-4.3,1.7-8.4,2.4-12.5l0.1-0.5c4.1-18.1,7-36.8,8.6-55.7l0-0.2l0.1-0.8l-0.2-0.8v-0.1l0.2-0.2c0.6-7.7,1-15.6,1.1-23.4l-0.3-0.2
	l1-0.6l-1-1.6v-0.1l1-3.8v-1.7v-0.8c-0.6-0.1-0.6-0.1-0.6-0.2c0-1.3-0.4-3.9-0.4-3.9v-0.2l0.3-0.7l0-0.7c0-0.1,0-0.1,0-0.2l0.7-0.4
	v-0.3c0,0-0.7-0.4-1-0.6v-0.2l0.3-0.7l0-1.3c-0.2-5.8-0.5-11.5-0.9-17c0-2.8,0-5.6,0-8.4c-0.2-13.3-1.1-27-2.7-40.6
	c-0.2-1.4-0.3-2.9-0.5-4.3l0-0.2c0-0.1,0-0.1,0-0.2l0-0.1c-0.1-1.2-0.3-2.5-0.5-3.7l0-0.1l0-0.1l0-0.1l0-0.1c0-0.1,0-0.2,0-0.3
	l-0.1-0.7l-0.1-0.6l-0.1-0.7l-0.1-0.6l0-0.2c0-0.1,0-0.2,0-0.2l0-0.3c-0.1-0.8-0.2-1.7-0.4-2.5l0-0.2l0-0.2l-0.1-0.5
	c-1.2-7.6-2.6-15.3-4.3-23c-0.7-3-1.4-6.2-2.2-9.5c0,0,0-0.1,0-0.1c-0.7-3-1.5-5.9-2.2-8.5c0,0,0-0.1,0-0.1l-0.2-0.9l-0.1-0.3
	l-0.1-0.3c0-0.1,0-0.1-0.1-0.2c-0.2-0.9-0.5-1.7-0.7-2.6c-2.9-13.6-6.7-27.3-11.1-40.6l0-0.2c-2.7-8.1-5.7-16.2-9-24.2l-0.1-0.2
	l-0.1-0.1l-0.1-0.2l-0.1-0.2c-0.8-1.9-1.6-3.9-2.4-5.8c-5-11.7-10.7-23.3-16.9-34.5c-0.6-1.1-1.2-2.2-1.8-3.3
	c-2.3-4.7-4.6-9.3-7-13.7l-0.1-0.1l-0.1-0.1c-2.8-5.3-5.9-10.7-9.1-16l-0.2-0.3l-0.2-0.3c-2.2-3.7-4.4-7.3-6.7-10.7
	c-10.1-16.7-21.5-33-34-48.4c-1.7-2.1-3.4-4.1-5-6.1c-1-1.2-2-2.4-3-3.6c-1.3-1.5-2.6-3-3.9-4.5c-11.6-13.2-24.3-26-37.8-37.9
	c-10.8-9.5-22.2-18.7-33.8-27.1c-15-10.9-30.9-20.9-47.3-29.8c-3.7-2-7.4-4-11-5.8l-0.2-0.1c-1-0.5-1.9-1-2.9-1.4c0,0-0.1,0-0.1-0.1
	l-0.8-0.4l-0.6-0.3l-1.2-0.6c0,0-0.1,0-0.1-0.1c-1.1-0.6-2.3-1.1-3.4-1.6l-0.3-0.1l-0.4-0.2c-0.4-0.2-0.8-0.4-1.2-0.5
	c0,0-0.1,0-0.1-0.1c-1.9-0.9-3.7-1.7-5.5-2.6c-2.4-1.1-4.8-2.2-6.9-3.1c-1.3-0.6-2.5-1.1-3.8-1.6c-1.4-0.7-2.9-1.4-4.3-2.1
	c-9.5-5-19.4-9.6-29.4-13.7c-0.3-0.1-0.5-0.2-0.8-0.3c-5.2-2.1-10.6-4.1-15.8-6c-1.5-0.5-3-1.1-4.6-1.6c-7.5-2.5-15.1-4.8-22.6-6.7
	c-3.4-0.9-6.8-1.7-10-2.5c-29.1-9.7-59.7-15.4-90.9-17c-12.2-1.1-24.6-1.8-36.9-1.9c-1.9,0-3.8,0-5.6,0l0,0V8.3z"/>
<path class="st0" d="M35.4,897.2c-0.4,0-0.7,0-1.1,0.1h-21l-0.4,1h-0.2c-0.1,0-0.2,0.1-0.2,0.1c-0.3,0-0.6,0.1-0.9,0.3
	c-0.2,0.1-0.4,0.3-0.7,0.4l-0.1,0.1l-0.1,0.1l-0.1,0.1c-0.2,0.2-0.4,0.3-0.6,0.5c-0.1,0.1-0.1,0.1-0.1,0.1c0,0-0.1,0-0.1,0.1
	c-0.8,0.7-1.4,1.4-2,2.3l-0.1,0.1c-0.8,1.1-1.3,2.4-1.6,3.7c-0.4,1.6-0.4,3.3,0,5.1c0.2,1.2,0.7,2.4,1.4,3.5
	c0.6,0.9,1.3,1.8,2.1,2.6l0.1,0.1l0.1,0.1c0,0,0.1,0.1,0.1,0.1l0.2,0.1c0.3,0.3,0.7,0.5,1,0.8c0.2,0.1,0.4,0.2,0.5,0.3l0.1,0
	l0.1,0.1l0.2,0.1l0.1,0.1l0.1,0c0.4,0.2,0.8,0.3,1.1,0.3h0.4l0.1-1h2.5l2.4,1h1.1h14.9l0.1-0.2l0.1,0l0.1,0l0.2,0l0.2,0l0.1-0.8
	l0.2,1l0,0c0.1,0,0.1,0,0.1,0c0.1,0,0.2,0,0.3,0c0.2,0,0.3,0,0.4,0l0.2,0l0.2,0l0.2,0c0.3-0.1,0.7-0.1,1-0.2
	c0.3-0.1,0.5-0.1,0.7-0.2l0.2-0.1c0.2-0.1,0.4-0.2,0.6-0.2c0.3-0.1,0.5-0.2,0.8-0.4l0.2-0.1c0.5-0.3,0.9-0.5,1.3-0.8
	c0.6-0.4,1.2-1,1.7-1.5c0.4-0.5,0.8-1,1.1-1.6l0.1-0.1l0.1-0.1c0.2-0.3,0.4-0.7,0.6-1.1c0.2-0.3,0.3-0.7,0.4-1.1
	c0.1-0.3,0.2-0.5,0.2-0.8l0-0.1l0-0.1c0.1-0.5,0.2-1,0.2-1.6c0-0.2,0-0.4,0-0.5c0-0.6,0-1.3-0.1-2l0-0.1l0-0.1
	c-0.1-0.7-0.3-1.5-0.6-2.2c-0.1-0.3-0.3-0.6-0.4-0.8c-0.1-0.2-0.2-0.4-0.3-0.6c-0.4-0.7-0.8-1.3-1.4-1.9l-0.1-0.1l-0.2-0.2
	c-0.3-0.3-0.7-0.6-1.1-0.9l-0.1-0.1c-0.3-0.2-0.5-0.4-0.8-0.5c-0.2-0.1-0.5-0.3-0.7-0.4c-0.5-0.3-1.1-0.5-1.7-0.7l-0.1,0
	c-0.2-0.1-0.4-0.1-0.6-0.2l-0.1,0l-0.1,0l-0.1,0c-0.5-0.1-1-0.2-1.6-0.3l-0.1,0l-0.1,0l-0.1,0C35.7,897.2,35.5,897.2,35.4,897.2
	L35.4,897.2L35.4,897.2z"/>
<path class="st0" d="M4091.1-1782.4c0,0.7,0.6,1.2,1.2,1.2c0.7,0,1.2-0.6,1.2-1.2c0-0.7-0.6-1.2-1.2-1.2
	S4091.1-1783.1,4091.1-1782.4L4091.1-1782.4L4091.1-1782.4z"/>
</svg>
