<?xml version="1.0" encoding="utf-8"?>
<!-- Generator: Adobe Illustrator 23.0.6, SVG Export Plug-In . SVG Version: 6.00 Build 0)  -->
<svg version="1.1" id="Layer_1" xmlns="http://www.w3.org/2000/svg" xmlns:xlink="http://www.w3.org/1999/xlink" x="0px" y="0px"
	 viewBox="0 0 24 24" style="enable-background:new 0 0 24 24;" xml:space="preserve">
<style type="text/css">
	.st0{fill:#3913A0;}
</style>
<path class="st0" d="M21,11V9 M21,15v-2 M21,7V5c0-1.1-0.9-2-2-2H5C3.9,3,3,3.9,3,5v14c0,1.1,0.9,2,2,2h14c1.1,0,2-0.9,2-2v-2
	 M19,19H5V5h14V19 M7,13h5v4H7V13 M13,7h4v3h-4V7 M13,11h4v6h-4V11z"/>
<polygon class="st0" points="10.1,9 9.5,7 8.9,9 7,9 8.5,10.1 8,12 9.5,10.8 11,12 10.5,10.1 12,9 "/>
</svg>
