<svg xmlns="http://www.w3.org/2000/svg" xmlns:xlink="http://www.w3.org/1999/xlink" viewBox="0 0 2507.58 1736.36"><defs><style>.cls-1{fill:none;}.cls-2{isolation:isolate;}.cls-3{opacity:0.22;}.cls-34,.cls-4{opacity:0.15;}.cls-5{clip-path:url(#clip-path);}.cls-10,.cls-13,.cls-42,.cls-44,.cls-45,.cls-6{opacity:0.5;}.cls-7{clip-path:url(#clip-path-2);}.cls-8{clip-path:url(#clip-path-3);}.cls-9{fill:#dceeff;}.cls-10,.cls-12,.cls-21,.cls-22,.cls-31,.cls-34,.cls-35{fill:#6b99d1;mix-blend-mode:multiply;}.cls-11,.cls-15,.cls-17{fill:#fff;}.cls-12{opacity:0.06;}.cls-13,.cls-14,.cls-40{fill:#a3cbef;}.cls-15,.cls-17,.cls-19{stroke:#dceeff;stroke-miterlimit:10;}.cls-15{stroke-width:10px;}.cls-16,.cls-62{fill:#3913a0;}.cls-17,.cls-19{stroke-width:8px;}.cls-18,.cls-57{fill:#f2275a;}.cls-19,.cls-23{fill:#ddedf9;}.cls-20{fill:url(#linear-gradient);}.cls-21,.cls-60,.cls-62{opacity:0.2;}.cls-22,.cls-49{opacity:0.05;}.cls-24{fill:#f94f21;}.cls-25{fill:#1a1a1a;}.cls-26,.cls-59,.cls-60{fill:#ffea00;}.cls-27{fill:#c62d14;}.cls-28{fill:url(#linear-gradient-2);}.cls-29{fill:url(#linear-gradient-3);}.cls-30{fill:url(#linear-gradient-4);}.cls-31{opacity:0.08;}.cls-32{fill:#c8e2ff;}.cls-33{fill:#a5cbfa;}.cls-35{opacity:0.12;}.cls-36{fill:url(#linear-gradient-5);}.cls-37{fill:url(#linear-gradient-6);}.cls-38{fill:url(#linear-gradient-7);}.cls-39,.cls-41,.cls-43{opacity:0.1;}.cls-39{fill:url(#linear-gradient-8);}.cls-40{opacity:0.55;}.cls-41{fill:url(#linear-gradient-9);}.cls-42{fill:url(#linear-gradient-10);}.cls-43{fill:url(#linear-gradient-11);}.cls-44{fill:url(#linear-gradient-12);}.cls-45{fill:url(#linear-gradient-13);}.cls-46{fill:url(#linear-gradient-14);}.cls-47{fill:url(#linear-gradient-15);}.cls-48{fill:url(#linear-gradient-16);}.cls-50{opacity:0.35;}.cls-51{opacity:0.81;}.cls-52{fill:#ebf4f7;}.cls-53{clip-path:url(#clip-path-4);}.cls-54{fill:#f5fafc;}.cls-55{fill:url(#linear-gradient-17);}.cls-56{fill:url(#linear-gradient-18);}.cls-57{opacity:0.3;}.cls-58{fill:#380fa1;opacity:0.6;}.cls-59{opacity:0.7;}.cls-61{opacity:0.42;}</style><clipPath id="clip-path" transform="translate(-257.53 -117.07)"><ellipse class="cls-1" cx="1559.79" cy="1488.34" rx="902.67" ry="431.89"/></clipPath><clipPath id="clip-path-2" transform="translate(-257.53 -117.07)"><ellipse class="cls-1" cx="1559.79" cy="1450.22" rx="902.67" ry="431.89"/></clipPath><clipPath id="clip-path-3" transform="translate(-257.53 -117.07)"><ellipse class="cls-1" cx="1559.79" cy="1412.1" rx="902.67" ry="431.89"/></clipPath><linearGradient id="linear-gradient" x1="2110.47" y1="151.79" x2="2159.84" y2="151.79" gradientTransform="matrix(0.93, -1.14, 0.01, 1.05, 115.43, 3086.45)" gradientUnits="userSpaceOnUse"><stop offset="0" stop-color="#3913a0"/><stop offset="1" stop-color="#1a1a1a"/></linearGradient><linearGradient id="linear-gradient-2" x1="845.45" y1="1132.59" x2="834.29" y2="1201.8" gradientUnits="userSpaceOnUse"><stop offset="0" stop-color="#f2275a"/><stop offset="1" stop-color="#3913a0"/></linearGradient><linearGradient id="linear-gradient-3" x1="884.74" y1="1138.92" x2="873.57" y2="1208.13" xlink:href="#linear-gradient-2"/><linearGradient id="linear-gradient-4" x1="918.15" y1="1144.31" x2="906.99" y2="1213.52" xlink:href="#linear-gradient-2"/><linearGradient id="linear-gradient-5" x1="1208.45" y1="1881.87" x2="1212.98" y2="1811.88" gradientTransform="matrix(1, 0.46, 0, 1, 0, -1258.43)" gradientUnits="userSpaceOnUse"><stop offset="0" stop-color="#f2275a"/><stop offset="1" stop-color="#ffea00"/></linearGradient><linearGradient id="linear-gradient-6" x1="1267.23" y1="1893.29" x2="1271.72" y2="1824.03" xlink:href="#linear-gradient-5"/><linearGradient id="linear-gradient-7" x1="1311.2" y1="1903.72" x2="1315.78" y2="1832.99" xlink:href="#linear-gradient-5"/><linearGradient id="linear-gradient-8" x1="2528.85" y1="707.55" x2="2600.11" y2="707.55" gradientTransform="matrix(0.56, 0.83, -0.83, 0.56, 638.53, -1699.19)" xlink:href="#linear-gradient-5"/><linearGradient id="linear-gradient-9" x1="2766.36" y1="624.98" x2="2837.62" y2="624.98" gradientTransform="matrix(0.56, 0.83, -0.83, 0.56, 655.89, -1974.75)" xlink:href="#linear-gradient-5"/><linearGradient id="linear-gradient-10" x1="2456.13" y1="623.59" x2="2488.33" y2="623.59" gradientTransform="translate(837.55 -1702.57) rotate(56.07)" xlink:href="#linear-gradient-5"/><linearGradient id="linear-gradient-11" x1="2617.2" y1="845.11" x2="2688.46" y2="845.11" gradientTransform="matrix(0.56, 0.83, -0.83, 0.56, 815.36, -1730.17)" xlink:href="#linear-gradient-5"/><linearGradient id="linear-gradient-12" x1="2319.23" y1="851.54" x2="2351.43" y2="851.54" gradientTransform="matrix(0.56, 0.83, -0.83, 0.56, 996.67, -1472.52)" xlink:href="#linear-gradient-5"/><linearGradient id="linear-gradient-13" x1="2223.48" y1="719.01" x2="2255.69" y2="719.01" gradientTransform="matrix(0.56, 0.83, -0.83, 0.56, 828.14, -1438.22)" xlink:href="#linear-gradient-5"/><linearGradient id="linear-gradient-14" x1="1609.49" y1="934.04" x2="1617.07" y2="735.18" gradientTransform="translate(-26.97 11.38) rotate(-0.23)" xlink:href="#linear-gradient-5"/><linearGradient id="linear-gradient-15" x1="1721.14" y1="692.16" x2="1724.11" y2="614.24" gradientTransform="translate(-26.97 11.38) rotate(-0.23)" xlink:href="#linear-gradient-5"/><linearGradient id="linear-gradient-16" x1="1500.86" y1="810.93" x2="1507.08" y2="647.92" gradientTransform="translate(-26.97 11.38) rotate(-0.23)" xlink:href="#linear-gradient-5"/><clipPath id="clip-path-4" transform="translate(-257.53 -117.07)"><path class="cls-1" d="M1018.43,421.6c29.83,71,101-26,173.14-.21s33.64,59.78,59.84-13.21c6.08-16.94-23.92,59.24-24.32,42.3,45.81,5.85,91.42-12,121.79-46.19a188,188,0,0,0,55.48,31.18c69,24.61,143,6.64,193.78-40.34,23,48.12,80,54.66,133.93,73.9,84.56,30.19,160.06,35,215.59-30.32a128.6,128.6,0,0,0,65.61,52.47c67.84,24.22,142.81-11.82,167.45-80.49s-10.36-144-78.2-168.18a129.67,129.67,0,0,0-108.71,10.06c-14.43-64.35-74.26-130.73-133.71-151.95-81.21-29-168.75-4.43-224.75,55.43A188.17,188.17,0,0,0,1534.88,71.8c-95.86-34.22-201.47,13.84-241,107.74l-.75-.28c-72.11-25.74-151.8,12.56-178,85.56a141.65,141.65,0,0,0-8.35,51.2C1043.4,307.92,997.38,371.48,1018.43,421.6Z"/></clipPath><linearGradient id="linear-gradient-17" x1="904.2" y1="793.71" x2="1411.97" y2="793.71" gradientTransform="matrix(1, 0.3, 0, 1, 0, -705.6)" xlink:href="#linear-gradient-2"/><linearGradient id="linear-gradient-18" x1="4107.05" y1="-169.69" x2="4614.82" y2="-169.69" gradientTransform="matrix(-1, 0.3, 0, 1, 6366.52, -705.6)" xlink:href="#linear-gradient-5"/></defs><title>Services and integration</title><g class="cls-2"><g id="Layer_10" data-name="Layer 10"><path class="cls-9" d="M1588.33,885.85c487,5.51,878.4,205.59,878.4,451.61,0,249.48-402.51,451.72-899,451.72s-899-202.24-899-451.72,402.51-451.73,899-451.73" transform="translate(-257.53 -117.07)"/><path class="cls-9" d="M1588.33,885.85a1627.85,1627.85,0,0,1,271.11,17.2c11.24,1.63,22.44,3.5,33.65,5.36l16.78,3c5.6,1,11.17,2.15,16.75,3.21q33.47,6.61,66.65,14.76c22.12,5.42,44.08,11.56,65.89,18.22s43.47,13.95,64.91,21.9a942.47,942.47,0,0,1,125.21,56.76q30.28,16.6,59,36.14c2.38,1.64,4.8,3.23,7.16,4.92l7.06,5.06c4.75,3.33,9.32,6.92,14,10.39,2.34,1.73,4.59,3.57,6.87,5.38l6.82,5.43,6.7,5.62c2.21,1.89,4.48,3.72,6.64,5.68,4.35,3.9,8.78,7.7,13,11.77l6.39,6,6.22,6.22,3.11,3.11c1,1,2,2.13,3,3.2l6,6.42c2,2.15,3.91,4.41,5.87,6.61s3.93,4.4,5.77,6.71l5.63,6.86c1,1.13,1.85,2.3,2.74,3.48l2.7,3.54c3.67,4.65,7,9.55,10.48,14.4a326,326,0,0,1,18.69,30.58l2.16,4,2,4c1.31,2.71,2.68,5.39,4,8.12,2.42,5.53,4.95,11,7,16.69,2.3,5.6,4.12,11.4,6.07,17.15.88,2.9,1.69,5.84,2.53,8.76.41,1.47.87,2.92,1.22,4.4l1.05,4.45,1.05,4.45.52,2.23.42,2.25,1.67,9c.51,3,.85,6,1.28,9.08.2,1.51.42,3,.59,4.55l.39,4.57.39,4.58c.12,1.52.27,3.05.3,4.58l.31,9.18c.08,1.53,0,3.06,0,4.59l-.07,4.6-.08,4.6c0,1.53-.18,3.06-.27,4.59a260.27,260.27,0,0,1-14.57,71.72l-3.18,8.56c-.51,1.44-1.11,2.83-1.7,4.23l-1.77,4.2-1.78,4.19c-.58,1.41-1.28,2.75-1.91,4.13l-3.91,8.21-4.22,8-2.12,4-2.27,3.91c-1.52,2.61-3,5.23-4.56,7.81l-4.83,7.62c-.81,1.26-1.59,2.56-2.44,3.79l-2.54,3.71c-1.71,2.46-3.39,5-5.12,7.39l-5.36,7.2c-.9,1.19-1.77,2.41-2.69,3.59L2418,1520l-5.6,7-5.8,6.78-2.91,3.39c-1,1.12-2,2.2-3,3.3l-6,6.57c-2,2.19-4.11,4.26-6.16,6.4s-4.1,4.28-6.24,6.32l-6.36,6.16-3.2,3.08-3.26,3-6.54,6c-2.18,2-4.44,3.86-6.65,5.8s-4.44,3.87-6.71,5.73l-6.82,5.57c-36.52,29.58-76.13,54.55-117.14,76.24a1016.59,1016.59,0,0,1-126.9,55.93,1304.18,1304.18,0,0,1-132.14,40.17c-44.63,11.09-89.75,20-135.12,27-22.68,3.56-45.44,6.49-68.23,9-11.4,1.33-22.82,2.38-34.23,3.51-11.43,1-22.85,2-34.28,2.75s-22.88,1.47-34.33,2.14c-11.45.51-22.9,1.09-34.35,1.4s-22.91.58-34.37.82c-11.46.06-22.92.24-34.38.11s-22.91-.28-34.37-.5c-5.73-.14-11.45-.36-17.18-.53l-8.59-.29-8.59-.38c-22.9-1-45.79-2.45-68.64-4.33-5.71-.5-11.43-.92-17.14-1.5l-17.12-1.68c-11.4-1.25-22.8-2.43-34.18-3.91s-22.75-3-34.12-4.55l-17-2.57c-5.68-.83-11.33-1.84-17-2.76-90.54-15.17-180.11-38-266.32-71.18a971.58,971.58,0,0,1-125.85-58.61c-40.54-22.72-79.45-49-115-79.93a471.11,471.11,0,0,1-50-50.4,370.77,370.77,0,0,1-41.23-58.84c-11.67-21.15-21.29-43.72-27.45-67.44l-1.19-4.43c-.36-1.49-.67-3-1-4.48-.64-3-1.35-6-1.92-9l-1.52-9.08-.38-2.27c-.11-.75-.18-1.52-.28-2.28l-.53-4.57c-.84-6.09-1.08-12.23-1.51-18.35l-.15-9.2c0-1.54-.09-3.07,0-4.6l.15-4.6.16-4.6.09-2.29.18-2.29.78-9.16c.29-3,.79-6.08,1.17-9.11l.63-4.55.83-4.51a251.5,251.5,0,0,1,9-35.43l2.95-8.62,3.32-8.46c.56-1.4,1.08-2.83,1.69-4.21l1.85-4.14,1.84-4.14c.62-1.37,1.21-2.76,1.91-4.1l4-8.08,1-2,1.09-2,2.17-3.94c2.82-5.31,6-10.37,9.1-15.49,6.46-10,13.19-19.89,20.56-29.18,3.57-4.74,7.44-9.21,11.21-13.76.93-1.15,1.91-2.25,2.89-3.35l2.95-3.3c2-2.18,3.88-4.44,5.92-6.56a501.3,501.3,0,0,1,51.49-47.68,636.09,636.09,0,0,1,56.58-40.44q29.25-18.63,60-34.43a995,995,0,0,1,126.34-54c86.31-30.2,175.61-50.1,265.59-62.39,22.51-3,45.06-5.63,67.65-7.73s45.22-3.64,67.85-4.83,45.28-1.79,67.92-2.05,45.27.07,67.88.71c-90.41,2.84-180.49,11.61-269.12,27.66-22.16,4-44.2,8.55-66.15,13.43-5.47,1.26-11,2.43-16.43,3.77l-16.39,3.95-16.32,4.18c-5.44,1.39-10.84,2.92-16.26,4.37-21.65,6-43.17,12.33-64.47,19.3s-42.39,14.54-63.22,22.67c-41.66,16.27-82.35,34.86-121.16,56.52s-75.86,46.2-109.29,74.65a482.89,482.89,0,0,0-46.75,45.69c-1.84,2-3.52,4.11-5.29,6.15l-2.63,3.1c-.88,1-1.75,2-2.57,3.12-3.33,4.25-6.77,8.41-9.88,12.79-6.49,8.58-12.29,17.59-17.84,26.69-2.64,4.62-5.39,9.18-7.76,13.92l-1.85,3.52-.92,1.76-.84,1.8-3.38,7.17c-.59,1.18-1.07,2.41-1.58,3.62l-1.52,3.64-1.53,3.64c-.51,1.22-.92,2.46-1.39,3.69l-2.71,7.39-2.36,7.48a219.46,219.46,0,0,0-7,30.41l-.64,3.84-.43,3.86c-.27,2.58-.65,5.14-.84,7.73l-.5,7.74-.12,1.94,0,1.94,0,3.88-.06,3.88c0,1.29.07,2.58.1,3.87l.29,7.75c.5,5.14.76,10.3,1.59,15.41l.53,3.84c.09.64.16,1.28.27,1.92l.36,1.9,1.43,7.62c.53,2.53,1.19,5,1.77,7.56.31,1.26.58,2.52.91,3.78l1.09,3.73c5.57,20,14.17,39.17,24.65,57.4a330.8,330.8,0,0,0,37.39,51.43A436.32,436.32,0,0,0,805,1547.92c33.08,28,69.85,52.1,108.4,73.15a949.49,949.49,0,0,0,120.48,54.5,1243.05,1243.05,0,0,0,126.91,39.67q32.28,8.23,64.94,15c21.76,4.55,43.66,8.5,65.62,12.08,5.5.86,11,1.82,16.49,2.61l16.52,2.44c11,1.48,22.06,3,33.12,4.3s22.13,2.51,33.21,3.69l16.63,1.57c5.54.55,11.1.93,16.65,1.41,22.21,1.8,44.45,3.23,66.73,4.13l8.35.37,8.35.26c5.58.17,11.14.38,16.72.5l16.72.31c5.57.14,11.14.09,16.72.16,11.15.14,22.29,0,33.44-.07,11.15-.23,22.3-.35,33.43-.76s22.28-.85,33.42-1.33c11.12-.64,22.25-1.19,33.36-2s22.22-1.68,33.33-2.57c11.09-1.06,22.19-2,33.25-3.29,5.54-.6,11.08-1.18,16.6-1.88l16.58-2,16.55-2.21c5.52-.74,11-1.6,16.53-2.39,88-13.1,175-33.46,258.61-62.94q31.32-11.06,61.82-24.05t59.91-28c39.11-20.13,76.71-43.07,110.87-70a484.84,484.84,0,0,0,48.3-43.21l5.53-5.85c.91-1,1.86-1.94,2.75-2.94l2.66-3,5.33-6,5.1-6.17,2.56-3.08c.83-1,1.63-2.11,2.44-3.16l4.88-6.32c1.58-2.13,3.09-4.31,4.65-6.46l2.32-3.24c.77-1.08,1.46-2.2,2.2-3.3l4.38-6.62c1.4-2.24,2.73-4.51,4.11-6.76l2-3.39,1.91-3.45,3.8-6.91,3.5-7c.57-1.18,1.21-2.33,1.72-3.53l1.6-3.58,1.59-3.59c.54-1.19,1.08-2.38,1.53-3.6l2.86-7.28a221.71,221.71,0,0,0,13.58-60.49c.11-1.29.25-2.58.32-3.87l.14-3.88.14-3.88c.05-1.29.13-2.59.08-3.88l-.11-7.77c0-1.29-.09-2.58-.18-3.88l-.24-3.88-.24-3.88c-.12-1.29-.29-2.57-.43-3.86-.31-2.58-.53-5.16-.91-7.73l-1.24-7.7-.31-1.92-.41-1.91-.81-3.82-.81-3.82c-.26-1.28-.64-2.53-1-3.8-.67-2.52-1.3-5.05-2-7.57-1.58-5-3-10-4.91-14.93-1.68-5-3.81-9.8-5.8-14.68-1.06-2.42-2.21-4.8-3.31-7.21l-1.67-3.59-1.83-3.54a291.45,291.45,0,0,0-16-27.66c-3-4.45-5.92-8.94-9.15-13.25l-2.37-3.26c-.78-1.1-1.57-2.18-2.42-3.23l-5-6.38c-1.62-2.16-3.41-4.19-5.13-6.28s-3.44-4.17-5.23-6.2l-5.41-6.09c-.91-1-1.79-2-2.72-3l-2.8-3-5.61-5.93-5.79-5.77c-3.81-3.9-7.86-7.57-11.83-11.33-32.17-29.71-68.52-55.28-106.68-77.92s-78.5-42-119.84-59.06c-82.75-34-169.72-58.33-258.06-75.55S1678.71,889.66,1588.33,885.85Z" transform="translate(-257.53 -117.07)"/><path class="cls-10" d="M1582.94,1073.21c218.1,2.47,393.38,92.07,393.38,202.25,0,111.72-180.26,202.3-402.62,202.3s-402.62-90.58-402.62-202.3,180.26-202.3,402.62-202.3" transform="translate(-257.53 -117.07)"/><path class="cls-11" d="M1582.94,953.21c218.1,2.47,393.38,92.07,393.38,202.25,0,111.72-180.26,202.3-402.62,202.3s-402.62-90.58-402.62-202.3,180.26-202.3,402.62-202.3" transform="translate(-257.53 -117.07)"/><path class="cls-12" d="M1589.5,881.51c472.13,4.44,851.59,165.73,851.59,364,0,46.32-137.35-22.65-211.61-57.9,0,0-25.86,194.92-258.52,153.09C1899,1327.82,1834,1302.93,1834,1302.93s-63.56,64.25-306.12,78C1288.53,1394.39,1226,1249.79,1226,1249.79s-30.16,118.25-210,127c-136.35,6.61-152.8-78.38-152.8-78.38s-165.28,37.88-165.28-52.83c0-201.1,390.22-364.14,871.58-364.14" transform="translate(-257.53 -117.07)"/><path class="cls-13" d="M2093.81,628.07l13.71-28.14c2-4.18,5-6.89,7.53-7.36a3.65,3.65,0,0,1,3.78,1.3l12.88,10c2.89,2.24,2.89,8.86,0,14.79s-7.58,8.93-10.47,6.7l-.91-.71V875.24c0,5.78-3.31,12.58-7.4,15.19h0c-4.09,2.62-7.41.06-7.41-5.72V633.61l-1.24,2.55c-2.89,5.93-7.58,8.93-10.47,6.7S2090.92,634,2093.81,628.07Z" transform="translate(-257.53 -117.07)"/><path class="cls-14" d="M2044.61,1063.78l107.57-67.51c3.85-2.41,7-8.27,7-13.08V712.6c0-4.81-3.13-6.74-7-4.33l-107.57,67.51c-3.86,2.42-7,8.28-7,13.09v270.58C2037.63,1064.26,2040.75,1066.2,2044.61,1063.78Z" transform="translate(-257.53 -117.07)"/><path class="cls-15" d="M2163.62,1004.65l-102.74,59.84c-5.76,3.35-10.5.16-10.59-7.13L2047,786.68c-.09-7.29,4.5-15.92,10.26-19.27L2160,707.57c5.76-3.35,10.5-.16,10.59,7.13l3.3,270.67C2174,992.66,2169.37,1001.29,2163.62,1004.65Z" transform="translate(-257.53 -117.07)"/><path class="cls-16" d="M2110.7,897.65l-2.1,1.23c-2.27,1.32-4.14.15-4.18-2.61l0-3.89a9.25,9.25,0,0,1,4-7.41l2.1-1.22c2.28-1.33,4.15-.16,4.18,2.6l.05,3.9A9.25,9.25,0,0,1,2110.7,897.65Z" transform="translate(-257.53 -117.07)"/><path class="cls-17" d="M2070.22,1035.25l-1.41.82c-.35.21-.65,0-.65-.44l0-2.15a1.45,1.45,0,0,1,.64-1.19l1.4-.82c.36-.21.65,0,.66.44l0,2.14A1.49,1.49,0,0,1,2070.22,1035.25Z" transform="translate(-257.53 -117.07)"/><path class="cls-17" d="M2089.41,1024.07l-1.4.82c-.36.21-.65,0-.66-.45l0-2.14a1.5,1.5,0,0,1,.63-1.2l1.41-.81c.36-.21.65,0,.66.44l0,2.14A1.47,1.47,0,0,1,2089.41,1024.07Z" transform="translate(-257.53 -117.07)"/><path class="cls-18" d="M2151.4,997.44l-1,.57c-3.31,1.93-6,.24-6.08-3.79l0-2.89c-.05-4,2.59-8.85,5.9-10.78l1-.58c3.31-1.93,6-.23,6.08,3.79l0,2.9C2157.35,990.68,2154.71,995.51,2151.4,997.44Z" transform="translate(-257.53 -117.07)"/><path class="cls-17" d="M2111.81,1011.4l-1.54.89c-.39.23-.72,0-.72-.48l0-2.35a1.64,1.64,0,0,1,.7-1.32l1.54-.89c.39-.23.71,0,.72.48l0,2.35A1.67,1.67,0,0,1,2111.81,1011.4Z" transform="translate(-257.53 -117.07)"/><path class="cls-17" d="M2133,998.09l-1.58.92c-.2.11-.36,0-.36-.25l0-2.31a.83.83,0,0,1,.35-.66l1.58-.92c.2-.11.36,0,.36.25l0,2.31A.83.83,0,0,1,2133,998.09Z" transform="translate(-257.53 -117.07)"/><path class="cls-19" d="M2132.67,738.46l-44.67,26c-1.25.73-2.28,0-2.3-1.55l-.08-6.48a5.21,5.21,0,0,1,2.23-4.19l44.67-26c1.25-.72,2.28,0,2.3,1.55l.08,6.48A5.21,5.21,0,0,1,2132.67,738.46Z" transform="translate(-257.53 -117.07)"/><path class="cls-19" d="M2133.51,909.25l-45,26.2c-.4.23-.72,0-.73-.49l0-2a1.66,1.66,0,0,1,.7-1.33l45-26.2c.4-.23.73,0,.73.5l0,2A1.67,1.67,0,0,1,2133.51,909.25Z" transform="translate(-257.53 -117.07)"/><path class="cls-19" d="M2122.84,948.61,2100,961.9c-.39.23-.72,0-.72-.49l0-2a1.67,1.67,0,0,1,.71-1.33l22.83-13.3c.4-.23.72,0,.73.49l0,2A1.67,1.67,0,0,1,2122.84,948.61Z" transform="translate(-257.53 -117.07)"/><path class="cls-20" d="M2122.24,846.75l-24.12,14c-6.16,3.58-11.22.17-11.32-7.62l-.4-33.31c-.1-7.79,4.81-17,11-20.6l24.12-14c6.16-3.59,11.23-.18,11.32,7.61l.41,33.32C2133.31,833.94,2128.4,843.16,2122.24,846.75Z" transform="translate(-257.53 -117.07)"/><ellipse class="cls-21" cx="1236.39" cy="1563.13" rx="17.86" ry="148.46" transform="translate(-874.53 2178.86) rotate(-73.23)"/><path class="cls-14" d="M2197.16,867.27,2212.4,836c2.26-4.65,5.51-7.66,8.36-8.18a4.07,4.07,0,0,1,4.2,1.45l14.32,11.06c3.21,2.49,3.21,9.85,0,16.44s-8.43,9.92-11.64,7.44l-1-.78v278.49c0,6.41-3.69,14-8.23,16.88h0c-4.54,2.9-8.23.06-8.23-6.36v-279l-1.38,2.83c-3.21,6.59-8.42,9.92-11.63,7.44S2193.94,873.86,2197.16,867.27Z" transform="translate(-257.53 -117.07)"/><ellipse class="cls-22" cx="2002.01" cy="1232.44" rx="84.03" ry="10.11" transform="translate(-606.45 1124.22) rotate(-31.83)"/><path class="cls-14" d="M2150.74,1291.46l118.1-74.11c4.23-2.65,7.66-9.09,7.66-14.37V905.92c0-5.28-3.43-7.41-7.66-4.75l-118.1,74.11c-4.23,2.66-7.66,9.09-7.66,14.37v297.06C2143.08,1292,2146.51,1294.12,2150.74,1291.46Z" transform="translate(-257.53 -117.07)"/><path class="cls-15" d="M2272.31,1222.26,2165.68,1292c-6,3.89-10.78.9-10.78-6.7V1002.37c0-7.6,4.82-16.91,10.78-20.8l106.63-69.75c6-3.89,10.78-.89,10.78,6.7v282.94C2283.09,1209.06,2278.26,1218.37,2272.31,1222.26Z" transform="translate(-257.53 -117.07)"/><path class="cls-19" d="M2243.75,946l-46.34,30.31c-1.3.85-2.34.2-2.34-1.45v-6.79a5.94,5.94,0,0,1,2.34-4.52l46.34-30.32c1.3-.84,2.34-.19,2.34,1.46v6.79A6,6,0,0,1,2243.75,946Z" transform="translate(-257.53 -117.07)"/><path class="cls-17" d="M2174.68,1261.11l-1.46,1c-.37.24-.67,0-.67-.42v-2.24a1.7,1.7,0,0,1,.67-1.29l1.46-1c.37-.24.67-.06.67.42v2.24A1.7,1.7,0,0,1,2174.68,1261.11Z" transform="translate(-257.53 -117.07)"/><path class="cls-17" d="M2194.59,1248.09l-1.46,1c-.37.25-.67.06-.67-.41v-2.25a1.7,1.7,0,0,1,.67-1.29l1.46-.95c.37-.25.67-.06.67.41v2.25A1.7,1.7,0,0,1,2194.59,1248.09Z" transform="translate(-257.53 -117.07)"/><path class="cls-18" d="M2237.16,1230.39l-1,.67c-3.44,2.25-6.22.66-6.22-3.54v-3a15.51,15.51,0,0,1,6.22-11.68l1-.67c3.43-2.25,6.22-.66,6.22,3.54v3A15.54,15.54,0,0,1,2237.16,1230.39Z" transform="translate(-257.53 -117.07)"/><path class="cls-17" d="M2257.43,1206.39l-1.64,1.08c-.21.13-.37,0-.37-.23v-2.42a.91.91,0,0,1,.37-.71l1.64-1.07c.2-.14.37,0,.37.22v2.42A.94.94,0,0,1,2257.43,1206.39Z" transform="translate(-257.53 -117.07)"/><path class="cls-17" d="M2217.48,1233.63l-1.6,1c-.41.27-.73.06-.73-.45v-2.46a1.85,1.85,0,0,1,.73-1.42l1.6-1c.41-.27.74-.06.74.46v2.46A1.87,1.87,0,0,1,2217.48,1233.63Z" transform="translate(-257.53 -117.07)"/><path class="cls-23" d="M2267.76,999.37l-94.12,61.56c-.78.52-1.42.12-1.42-.88v-4a3.67,3.67,0,0,1,1.42-2.75l94.12-61.56c.78-.51,1.42-.12,1.42.89v4A3.63,3.63,0,0,1,2267.76,999.37Z" transform="translate(-257.53 -117.07)"/><path class="cls-23" d="M2267.76,1017.79l-94.12,61.56c-.78.51-1.42.12-1.42-.89v-4a3.63,3.63,0,0,1,1.42-2.74l94.12-61.56c.78-.52,1.42-.12,1.42.88V1015A3.67,3.67,0,0,1,2267.76,1017.79Z" transform="translate(-257.53 -117.07)"/><path class="cls-23" d="M2267.76,1036.15l-94.12,61.56c-.78.52-1.42.12-1.42-.88v-3.95a3.67,3.67,0,0,1,1.42-2.75l94.12-61.56c.78-.51,1.42-.12,1.42.88v4A3.63,3.63,0,0,1,2267.76,1036.15Z" transform="translate(-257.53 -117.07)"/><path class="cls-23" d="M2267.76,1055.42,2173.64,1117c-.78.51-1.42.12-1.42-.88v-4a3.63,3.63,0,0,1,1.42-2.74l94.12-61.56c.78-.52,1.42-.12,1.42.88v4A3.67,3.67,0,0,1,2267.76,1055.42Z" transform="translate(-257.53 -117.07)"/><path class="cls-23" d="M2267.76,1073.83l-94.12,61.56c-.78.52-1.42.12-1.42-.88v-4a3.67,3.67,0,0,1,1.42-2.75l94.12-61.56c.78-.51,1.42-.12,1.42.89v3.95A3.63,3.63,0,0,1,2267.76,1073.83Z" transform="translate(-257.53 -117.07)"/><path class="cls-23" d="M2239.08,1111l-65.44,42.8c-.78.51-1.42.12-1.42-.89v-3.95a3.63,3.63,0,0,1,1.42-2.74l65.44-42.8c.78-.52,1.42-.12,1.42.88v4A3.67,3.67,0,0,1,2239.08,1111Z" transform="translate(-257.53 -117.07)"/><path class="cls-16" d="M2219.27,997.9,2174.84,1027a6.68,6.68,0,0,0-2.62,5.06v7.27c0,1.85,1.17,2.57,2.62,1.63l44.43-29.07a6.66,6.66,0,0,0,2.62-5.05v-7.28C2221.89,997.68,2220.72,997,2219.27,997.9Z" transform="translate(-257.53 -117.07)"/><path class="cls-23" d="M2207.75,1196.42l-30.58,20c-2.35,1.55-4.26.36-4.26-2.65v-26.06a10.9,10.9,0,0,1,4.26-8.24l30.58-20c2.36-1.54,4.27-.36,4.27,2.65v26.07A10.87,10.87,0,0,1,2207.75,1196.42Z" transform="translate(-257.53 -117.07)"/><path class="cls-24" d="M2266.28,1128.77l-45.87,30c-.78.51-1.42.11-1.42-.89v-4a3.63,3.63,0,0,1,1.42-2.74l45.87-30c.78-.52,1.42-.12,1.42.88v4A3.67,3.67,0,0,1,2266.28,1128.77Z" transform="translate(-257.53 -117.07)"/><path class="cls-24" d="M2246.6,1156.32l-26.19,17.13c-.78.52-1.42.12-1.42-.88v-4a3.67,3.67,0,0,1,1.42-2.75l26.19-17.13c.79-.51,1.43-.11,1.43.89v3.95A3.61,3.61,0,0,1,2246.6,1156.32Z" transform="translate(-257.53 -117.07)"/><path class="cls-24" d="M2232.09,1180.51l-11.68,7.63c-.78.51-1.42.12-1.42-.88v-4a3.65,3.65,0,0,1,1.42-2.75l11.68-7.63c.78-.52,1.42-.12,1.42.88v4A3.67,3.67,0,0,1,2232.09,1180.51Z" transform="translate(-257.53 -117.07)"/><path class="cls-18" d="M2261.67,964.37l-2.31,1.34c-2.49,1.46-4.55.18-4.59-2.86l-.05-4.27a10.15,10.15,0,0,1,4.46-8.13l2.3-1.34c2.5-1.46,4.55-.18,4.59,2.86l0,4.27A10.13,10.13,0,0,1,2261.67,964.37Z" transform="translate(-257.53 -117.07)"/><ellipse class="cls-21" cx="2210.17" cy="1441.54" rx="82.31" ry="9.9" transform="translate(-685.42 1265.46) rotate(-31.83)"/><path class="cls-14" d="M1896.18,1555.67l120.64-75.7c4.32-2.71,7.82-9.28,7.82-14.68V1161.85c0-5.4-3.5-7.57-7.82-4.86l-120.64,75.71c-4.32,2.71-7.83,9.28-7.83,14.68v303.44C1888.35,1556.21,1891.86,1558.39,1896.18,1555.67Z" transform="translate(-257.53 -117.07)"/><path class="cls-15" d="M1909.83,1562l120.64-75.71c4.32-2.71,7.83-9.28,7.83-14.68V1168.14c0-5.4-3.51-7.57-7.83-4.86L1909.83,1239c-4.32,2.71-7.82,9.28-7.82,14.68v303.44C1902,1562.5,1905.51,1564.68,1909.83,1562Z" transform="translate(-257.53 -117.07)"/><path class="cls-16" d="M1940.79,1484.33l54.56-34.23c9.29-5.84,16.83-19.6,16.83-30.73h0c0-11.14-7.54-15.43-16.83-9.6L1940.79,1444c-9.29,5.84-16.83,19.6-16.83,30.73h0C1924,1485.87,1931.5,1490.17,1940.79,1484.33Z" transform="translate(-257.53 -117.07)"/><path class="cls-25" d="M1966.79,1264.93l49.66-31.16a8.23,8.23,0,0,0,3.43-6.27h0c0-2.27-1.54-3.15-3.43-2l-49.66,31.17a8.18,8.18,0,0,0-3.43,6.26h0C1963.36,1265.24,1964.89,1266.12,1966.79,1264.93Z" transform="translate(-257.53 -117.07)"/><path class="cls-18" d="M1919.28,1294.75l1.58-1a7.43,7.43,0,0,0,3.1-5.67v-2.89c0-2-1.39-2.84-3.1-1.76l-1.58,1a7.38,7.38,0,0,0-3.1,5.66V1293C1916.18,1295,1917.56,1295.82,1919.28,1294.75Z" transform="translate(-257.53 -117.07)"/><path class="cls-17" d="M2016,1469.68l2-1.25a1.19,1.19,0,0,0,.48-.92v-2.89c0-.34-.21-.48-.48-.31l-2,1.26a1.22,1.22,0,0,0-.48.91v2.9C2015.47,1469.72,2015.69,1469.85,2016,1469.68Z" transform="translate(-257.53 -117.07)"/><path class="cls-17" d="M1994.78,1483l2-1.26a1.18,1.18,0,0,0,.48-.91v-2.9c0-.34-.21-.47-.48-.3l-2,1.26a1.18,1.18,0,0,0-.48.91v2.9C1994.3,1483,1994.52,1483.14,1994.78,1483Z" transform="translate(-257.53 -117.07)"/><path class="cls-18" d="M1970.62,1508.35l1.1-.69a15.8,15.8,0,0,0,6.61-12.07v-3.15c0-4.37-3-6.06-6.61-3.77l-1.1.69a15.82,15.82,0,0,0-6.61,12.07v3.15C1964,1509,1967,1510.64,1970.62,1508.35Z" transform="translate(-257.53 -117.07)"/><path class="cls-17" d="M1949.52,1511.77l2.19-1.38a1.28,1.28,0,0,0,.54-1v-3.17c0-.37-.24-.52-.54-.34l-2.19,1.38a1.31,1.31,0,0,0-.54,1v3.18C1949,1511.81,1949.22,1512,1949.52,1511.77Z" transform="translate(-257.53 -117.07)"/><path class="cls-17" d="M1928.08,1524.21l2-1.25a.67.67,0,0,0,.27-.5v-2.83c0-.18-.12-.26-.27-.17l-2,1.26a.63.63,0,0,0-.27.5V1524C1927.81,1524.23,1927.93,1524.3,1928.08,1524.21Z" transform="translate(-257.53 -117.07)"/><path class="cls-26" d="M1955.54,1412l27.6-17.31c8.92-5.6,16.15-19.17,16.15-30.3V1302c0-11.13-7.23-15.62-16.15-10l-27.6,17.32c-8.92,5.6-16.15,19.16-16.15,30.3V1402C1939.39,1413.13,1946.62,1417.62,1955.54,1412Z" transform="translate(-257.53 -117.07)"/><path class="cls-19" d="M2031.59,1356.13l-15.37,9.65c-2.06,1.29-3.73.25-3.73-2.32v-77.09a9.13,9.13,0,0,1,3.73-7l15.37-9.64c2.06-1.29,3.73-.26,3.73,2.31v77.1A9.1,9.1,0,0,1,2031.59,1356.13Z" transform="translate(-257.53 -117.07)"/><path class="cls-19" d="M1924.08,1423.6l-15.37,9.64c-2.06,1.3-3.73.26-3.73-2.31v-77.1a9.1,9.1,0,0,1,3.73-7l15.37-9.65c2.06-1.29,3.73-.25,3.73,2.32v77.09A9.12,9.12,0,0,1,1924.08,1423.6Z" transform="translate(-257.53 -117.07)"/><path class="cls-19" d="M1943,1234.32l50.85-31.91a4.16,4.16,0,0,0,1.7-3.19v-9c0-1.17-.76-1.64-1.7-1L1943,1221a4.14,4.14,0,0,0-1.7,3.19v9C1941.34,1234.44,1942.1,1234.91,1943,1234.32Z" transform="translate(-257.53 -117.07)"/><ellipse class="cls-21" cx="1970.15" cy="1615.86" rx="82.31" ry="9.9" transform="translate(-785.24 995.66) rotate(-27.97)"/><path class="cls-14" d="M895.56,920.52,886.05,901c-1.42-2.9-3.44-4.78-5.22-5.1a2.52,2.52,0,0,0-2.62.9l-8.93,6.9c-2,1.55-2,6.14,0,10.26s5.25,6.19,7.26,4.64l.63-.49v173.76c0,4,2.3,8.72,5.13,10.54h0c2.84,1.81,5.13,0,5.13-4V924.36l.87,1.77c2,4.11,5.25,6.19,7.26,4.64S897.56,924.63,895.56,920.52Z" transform="translate(-257.53 -117.07)"/><path class="cls-11" d="M1952.62,976.15l15.25-31.27c2.26-4.64,5.51-7.66,8.36-8.17a4,4,0,0,1,4.19,1.44l14.32,11.07c3.22,2.48,3.22,9.84,0,16.43s-8.42,9.92-11.63,7.44l-1-.78V1180.8c0,6.41-3.69,14-8.23,16.88h0c-4.55,2.9-8.23.06-8.23-6.36v-209l-1.38,2.83c-3.21,6.59-8.42,9.92-11.64,7.44S1949.41,982.74,1952.62,976.15Z" transform="translate(-257.53 -117.07)"/><path class="cls-11" d="M1999.86,1165.43l-.55.26c-2.13,1-4.06.18-4.9-2.16v-.36c-.88-2.38-.46-5.85,1.08-8.77l.19-.37c2.54-4.76,2.54-10.5,0-12.82s-6.64-.33-9.17,4.43l-.2.36a9.25,9.25,0,0,1-3.66,3.87c-3,1.5-5.44-.65-5.48-4.8v-.41c0-5-2.91-7.66-6.49-5.93s-6.48,7.19-6.48,12.19v.77a13.1,13.1,0,0,1-3.24,8.41l-.26.12c-2,2.2-4.34,2.74-5.9,1.36l-.2-.18c-2.53-2.32-6.64-.34-9.18,4.42s-2.54,10.51,0,12.83l.2.18c1.53,1.44,2,4.5,1.08,7.73s-2.7,6.12-4.9,7.25l-.29.15c-3.58,1.72-6.48,7.18-6.48,12.19s2.9,7.66,6.48,5.93l.55-.27a3.3,3.3,0,0,1,3.67.33c2.15,1.85,2.22,6.6.16,10.6l-.2.37c-2.53,4.76-2.53,10.51,0,12.82s6.65.34,9.18-4.42l.19-.37c1.57-2.89,3.91-4.61,5.91-4.34,2.06.06,3.45,2.1,3.5,5.15v.41c0,5,2.9,7.66,6.48,5.93s6.49-7.19,6.49-12.19v-.77a13.37,13.37,0,0,1,1.5-5.85c2.07-4,5.49-5.76,7.64-3.91l.2.18c2.53,2.31,6.64.33,9.17-4.43s2.53-10.51,0-12.83l-.19-.17c-1.53-1.45-2-4.51-1.07-7.73s2.76-5.86,4.89-6.9l.29-.14c3.59-1.73,6.49-7.18,6.49-12.19S2003.45,1163.7,1999.86,1165.43Zm-29.18,36.74c-5.37,2.59-9.72-1.4-9.72-8.9s4.35-15.7,9.72-18.29,9.73,1.39,9.73,8.9S1976.06,1199.57,1970.68,1202.17Z" transform="translate(-257.53 -117.07)"/><path class="cls-27" d="M2002.86,1165.43l-.55.26c-2.13,1-4.06.18-4.9-2.16v-.36c-.88-2.38-.46-5.85,1.08-8.77l.19-.37c2.54-4.76,2.54-10.5,0-12.82s-6.64-.33-9.17,4.43l-.2.36a9.25,9.25,0,0,1-3.66,3.87c-3,1.5-5.44-.65-5.48-4.8v-.41c0-5-2.91-7.66-6.49-5.93s-6.48,7.19-6.48,12.19v.77a13.1,13.1,0,0,1-3.24,8.41l-.26.12c-2,2.2-4.34,2.74-5.9,1.36l-.2-.18c-2.53-2.32-6.64-.34-9.18,4.42s-2.54,10.51,0,12.83l.2.18c1.53,1.44,2,4.5,1.08,7.73s-2.7,6.12-4.9,7.25l-.29.15c-3.58,1.72-6.48,7.18-6.48,12.19s2.9,7.66,6.48,5.93l.55-.27a3.3,3.3,0,0,1,3.67.33c2.15,1.85,2.22,6.6.16,10.6l-.2.37c-2.53,4.76-2.53,10.51,0,12.82s6.65.34,9.18-4.42l.19-.37c1.57-2.89,3.91-4.61,5.91-4.34,2.06.06,3.45,2.1,3.5,5.15v.41c0,5,2.9,7.66,6.48,5.93s6.49-7.19,6.49-12.19v-.77a13.37,13.37,0,0,1,1.5-5.85c2.07-4,5.49-5.76,7.64-3.91l.2.18c2.53,2.31,6.64.33,9.17-4.43s2.53-10.51,0-12.83l-.19-.17c-1.53-1.45-2-4.51-1.07-7.73s2.76-5.86,4.89-6.9l.29-.14c3.59-1.73,6.49-7.18,6.49-12.19S2006.45,1163.7,2002.86,1165.43Zm-29.18,36.74c-5.37,2.59-9.72-1.4-9.72-8.9s4.35-15.7,9.72-18.29,9.73,1.39,9.73,8.9S1979.06,1199.57,1973.68,1202.17Z" transform="translate(-257.53 -117.07)"/><path class="cls-24" d="M2005.84,1166.15l-.55.27c-2.13,1-4.06.17-4.9-2.17v-.36c-.88-2.37-.46-5.85,1.08-8.77l.19-.36c2.53-4.77,2.53-10.51,0-12.83s-6.64-.33-9.18,4.43l-.19.37a9.27,9.27,0,0,1-3.67,3.87c-3,1.5-5.43-.65-5.47-4.81v-.4c0-5-2.91-7.66-6.49-5.94s-6.48,7.19-6.48,12.2v.77a13.09,13.09,0,0,1-3.24,8.4l-.26.13c-2,2.2-4.34,2.73-5.91,1.35l-.19-.18c-2.53-2.32-6.64-.34-9.18,4.43s-2.54,10.51,0,12.83l.2.18c1.53,1.44,2,4.5,1.08,7.72s-2.7,6.13-4.9,7.26l-.29.14c-3.58,1.73-6.48,7.19-6.48,12.19s2.9,7.66,6.48,5.93l.55-.26a3.26,3.26,0,0,1,3.67.33c2.15,1.85,2.22,6.59.16,10.6l-.2.36c-2.53,4.77-2.53,10.51,0,12.83s6.65.33,9.18-4.43l.19-.37c1.57-2.89,3.9-4.61,5.91-4.34,2.06.07,3.45,2.11,3.5,5.15v.41c0,5,2.9,7.66,6.48,5.93s6.49-7.18,6.49-12.19v-.77a13.37,13.37,0,0,1,1.5-5.85c2.06-4,5.49-5.75,7.64-3.91l.19.18c2.54,2.32,6.65.34,9.18-4.43s2.53-10.5,0-12.82l-.19-.18c-1.53-1.45-2-4.51-1.07-7.73s2.76-5.85,4.89-6.89l.29-.14c3.58-1.73,6.49-7.19,6.49-12.2S2009.42,1164.42,2005.84,1166.15Zm-29.18,36.74c-5.37,2.59-9.72-1.39-9.72-8.9s4.35-15.69,9.72-18.29,9.73,1.39,9.73,8.9S1982,1200.3,1976.66,1202.89Z" transform="translate(-257.53 -117.07)"/><path class="cls-14" d="M956.28,1328.35l-130.42-70.71c-6.63-3.59-12-13.49-12-22.11v-215.6c0-8.62,5.37-12.69,12-9.1l130.42,70.71c6.63,3.59,12,13.49,12,22.11v215.6C968.28,1327.87,962.91,1331.94,956.28,1328.35Z" transform="translate(-257.53 -117.07)"/><path class="cls-11" d="M940.38,1334.57,810,1263.86c-6.63-3.59-12-13.49-12-22.11V1026.16c0-8.62,5.37-12.7,12-9.11l130.42,70.71c6.63,3.6,12,13.49,12,22.11v215.6C952.38,1334.09,947,1338.16,940.38,1334.57Z" transform="translate(-257.53 -117.07)"/><path class="cls-19" d="M913.77,1279.44l-86.39-49.81c-1.55-.89-2.8.12-2.8,2.26h0a6.85,6.85,0,0,0,2.8,5.49l86.39,49.8c1.54.89,2.79-.12,2.79-2.26h0A6.86,6.86,0,0,0,913.77,1279.44Z" transform="translate(-257.53 -117.07)"/><path class="cls-28" d="M854.72,1152.93q-1.46-7.85-2.89-15.25t-2.69-13.08a13.79,13.79,0,0,0-3.41-6.3,25.57,25.57,0,0,0-6.09-4.9,17,17,0,0,0-4.79-1.9,8.49,8.49,0,0,0-3.55-.23c-.32,1-.77,2.34-1.35,4.18s-1.2,3.92-1.89,6.29-1.42,4.89-2.2,7.55-1.52,5.27-2.21,7.83-1.32,4.94-1.89,7.15-1,4.08-1.35,5.61c-.23,1.07-.44,2-.62,2.79a11.17,11.17,0,0,0-.27,2.51,10.23,10.23,0,0,0,1.68,5.59,14.63,14.63,0,0,0,5.21,4.67,10.75,10.75,0,0,0,2.58,1.16,12.25,12.25,0,0,0,2,.36c.37-1.7.74-3.45,1.1-5.27s.74-3.59,1.1-5.28l12.48,7.19,1.24,7.29a30.68,30.68,0,0,0,.79,3.32,10.84,10.84,0,0,0,1.17,2.67,10.07,10.07,0,0,0,1.86,2.22,15.9,15.9,0,0,0,2.79,2,9.93,9.93,0,0,0,3.93,1.46,3,3,0,0,0,2.48-.72q-1-5.83-2.41-13.45T854.72,1152.93Zm-19.49-8.23c.64-3,1.36-5.91,2.16-8.71s1.53-5.37,2.17-7.66l.42.24q.82,4.38,1.82,9.86t2,11.19Z" transform="translate(-257.53 -117.07)"/><path class="cls-29" d="M894.47,1150a39.08,39.08,0,0,0-14.53-14,47.75,47.75,0,0,0-6-3,19.31,19.31,0,0,0-5.34-1.41,2.86,2.86,0,0,0-2.17.51,3.32,3.32,0,0,0-.8,2.64v44.89a18.66,18.66,0,0,0,.42,4.25,9.92,9.92,0,0,0,3.27,5.46,18.71,18.71,0,0,0,2.79,1.94,24.91,24.91,0,0,0,3.21,1.56,15.79,15.79,0,0,0,2.37.8v-17.54l4.89,2.82a19.78,19.78,0,0,0,7.41,2.79,7.38,7.38,0,0,0,5.31-1.13,9.19,9.19,0,0,0,3.17-4.66,24.71,24.71,0,0,0,1.06-7.82A35.06,35.06,0,0,0,894.47,1150Zm-8.78,15.86c-1,.64-2.52.41-4.44-.7l-3.66-2.11v-14.77a10,10,0,0,1,1.48.61c.49.25,1.1.58,1.83,1a12.32,12.32,0,0,1,4.72,4.67,13.07,13.07,0,0,1,1.62,6.51Q887.24,1164.88,885.69,1165.83Z" transform="translate(-257.53 -117.07)"/><path class="cls-30" d="M917.69,1166.4v50.33a15.13,15.13,0,0,1-2.38-.79,26.94,26.94,0,0,1-3.2-1.56,18.73,18.73,0,0,1-2.79-2,9.92,9.92,0,0,1-3.27-5.46,18.51,18.51,0,0,1-.42-4.24v-50.32c.51.16,1.31.45,2.42.86a21.21,21.21,0,0,1,3.16,1.49,18,18,0,0,1,2.79,2,9.77,9.77,0,0,1,2,2.36,10.42,10.42,0,0,1,1.24,3.1A19.11,19.11,0,0,1,917.69,1166.4Z" transform="translate(-257.53 -117.07)"/><ellipse class="cls-21" cx="870.57" cy="1384.23" rx="9.9" ry="82.31" transform="translate(-1018.68 1374.34) rotate(-61.59)"/><path class="cls-11" d="M1797.31,878.18l-84.86-49c-5.24-3-13.74-3-19,0l-84.86,49c-5.24,3-5.24,7.94,0,11l84.86,49c5.24,3,13.74,3,19,0l84.86-49C1802.55,886.11,1802.55,881.21,1797.31,878.18Z" transform="translate(-257.53 -117.07)"/><path class="cls-31" d="M1785.13,1087.65l-84.86-49c-5.24-3-13.73-3-19,0l-84.86,49c-5.24,3-5.24,7.93,0,10.95l84.86,49c5.24,3,13.73,3,19,0l84.86-49C1790.37,1095.58,1790.37,1090.67,1785.13,1087.65Z" transform="translate(-257.53 -117.07)"/><path class="cls-9" d="M1790.15,878.6l-78.42-45.28c-4.84-2.79-12.69-2.79-17.54,0l-78.42,45.28c-4.84,2.8-4.84,7.33,0,10.12L1694.19,934c4.85,2.8,12.7,2.8,17.54,0l78.42-45.28C1795,885.93,1795,881.39,1790.15,878.6Z" transform="translate(-257.53 -117.07)"/><path class="cls-11" d="M1703,829.92a16.5,16.5,0,0,1,8,1.87l84.86,49c1.52.88,2.43,2,2.43,2.88s-.91,2-2.43,2.88l-84.86,49a18.09,18.09,0,0,1-16,0l-84.86-49c-1.52-.88-2.43-1.95-2.43-2.88s.91-2,2.43-2.88l84.86-49a16.5,16.5,0,0,1,8-1.87m0-3a19.44,19.44,0,0,0-9.49,2.27l-84.86,49c-5.24,3-5.24,7.94,0,11l84.86,49a21,21,0,0,0,19,0l84.86-49c5.24-3,5.24-7.93,0-11l-84.86-49a19.42,19.42,0,0,0-9.49-2.27Z" transform="translate(-257.53 -117.07)"/><path class="cls-32" d="M1801.24,969.3c0,2.27-1.52,4-3.93,5.48l-84.86,49a19.35,19.35,0,0,1-9.49,2.27V940.4a19.28,19.28,0,0,0,9.49-2.27l84.86-49c2.11-1.21,3.93-3,3.93-5.48Z" transform="translate(-257.53 -117.07)"/><path class="cls-33" d="M1604.68,969.3c0,2.27,1.52,4,3.93,5.48l84.86,49a19.38,19.38,0,0,0,9.49,2.27V940.4a19.28,19.28,0,0,1-9.49-2.27l-84.86-49c-2.11-1.21-3.93-3-3.93-5.48Z" transform="translate(-257.53 -117.07)"/><path class="cls-11" d="M1797.31,788.92l-84.86-49c-5.24-3-13.74-3-19,0l-84.86,49c-5.24,3-5.24,7.93,0,11l84.86,49c5.24,3,13.74,3,19,0l84.86-49C1802.55,796.85,1802.55,792,1797.31,788.92Z" transform="translate(-257.53 -117.07)"/><path class="cls-9" d="M1790.15,789.34l-78.42-45.28c-4.84-2.79-12.69-2.79-17.54,0l-78.42,45.28c-4.84,2.8-4.84,7.33,0,10.12l78.42,45.28c4.85,2.8,12.7,2.8,17.54,0l78.42-45.28C1795,796.67,1795,792.13,1790.15,789.34Z" transform="translate(-257.53 -117.07)"/><path class="cls-11" d="M1703,740.66a16.5,16.5,0,0,1,8,1.87l84.86,49c1.52.88,2.43,2,2.43,2.88s-.91,2-2.43,2.88l-84.86,49a18,18,0,0,1-16,0l-84.86-49c-1.52-.88-2.43-1.95-2.43-2.88s.91-2,2.43-2.88l84.86-49a16.5,16.5,0,0,1,8-1.87m0-3a19.44,19.44,0,0,0-9.49,2.27l-84.86,49c-5.24,3-5.24,7.93,0,11l84.86,49a21,21,0,0,0,19,0l84.86-49c5.24-3,5.24-7.93,0-11l-84.86-49a19.42,19.42,0,0,0-9.49-2.27Z" transform="translate(-257.53 -117.07)"/><path class="cls-32" d="M1801.24,880c0,2.27-1.52,4-3.93,5.48l-84.86,49a19.35,19.35,0,0,1-9.49,2.26V851.14a19.28,19.28,0,0,0,9.49-2.27l84.86-49c2.11-1.21,3.93-3,3.93-5.48Z" transform="translate(-257.53 -117.07)"/><path class="cls-33" d="M1604.68,880c0,2.27,1.52,4,3.93,5.48l84.86,49a19.38,19.38,0,0,0,9.49,2.26V851.14a19.28,19.28,0,0,1-9.49-2.27l-84.86-49c-2.11-1.21-3.93-3-3.93-5.48Z" transform="translate(-257.53 -117.07)"/><path class="cls-11" d="M1797.31,699.29l-84.86-49c-5.24-3-13.74-3-19,0l-84.86,49c-5.24,3-5.24,7.93,0,11l84.86,49c5.24,3,13.74,3,19,0l84.86-49C1802.55,707.22,1802.55,702.31,1797.31,699.29Z" transform="translate(-257.53 -117.07)"/><path class="cls-9" d="M1790.15,699.7l-78.42-45.27c-4.84-2.8-12.69-2.8-17.54,0l-78.42,45.27c-4.84,2.8-4.84,7.33,0,10.13l78.42,45.28c4.85,2.79,12.7,2.79,17.54,0l78.42-45.28C1795,707,1795,702.5,1790.15,699.7Z" transform="translate(-257.53 -117.07)"/><path class="cls-11" d="M1703,651a16.61,16.61,0,0,1,8,1.86l84.86,49c1.52.88,2.43,2,2.43,2.88s-.91,2-2.43,2.88l-84.86,49a18,18,0,0,1-16,0l-84.86-49c-1.52-.88-2.43-2-2.43-2.88s.91-2,2.43-2.88l84.86-49a16.61,16.61,0,0,1,8-1.86m0-3a19.44,19.44,0,0,0-9.49,2.26l-84.86,49c-5.24,3-5.24,7.93,0,11l84.86,49a21,21,0,0,0,19,0l84.86-49c5.24-3,5.24-7.93,0-11l-84.86-49A19.41,19.41,0,0,0,1703,648Z" transform="translate(-257.53 -117.07)"/><path class="cls-32" d="M1801.24,790.41c0,2.26-1.52,4-3.93,5.48l-84.86,49a19.24,19.24,0,0,1-9.49,2.27V761.5a19.27,19.27,0,0,0,9.49-2.26l84.86-49c2.11-1.2,3.93-3,3.93-5.47Z" transform="translate(-257.53 -117.07)"/><path class="cls-33" d="M1604.68,790.41c0,2.26,1.52,4,3.93,5.48l84.86,49a19.27,19.27,0,0,0,9.49,2.27V761.5a19.27,19.27,0,0,1-9.49-2.26l-84.86-49c-2.11-1.2-3.93-3-3.93-5.47Z" transform="translate(-257.53 -117.07)"/><path class="cls-11" d="M1576.4,1000.79l-84.86-49c-5.24-3-13.74-3-19,0l-84.86,49c-5.24,3-5.24,7.93,0,11l84.86,49c5.24,3,13.74,3,19,0l84.86-49C1581.64,1008.72,1581.64,1003.81,1576.4,1000.79Z" transform="translate(-257.53 -117.07)"/><path class="cls-34" d="M1552,1125.5l-84.86-49c-5.24-3-13.73-3-19,0l-84.86,49c-5.24,3-5.24,7.93,0,11l84.86,49c5.24,3,13.73,3,19,0l84.86-49C1557.28,1133.43,1557.28,1128.52,1552,1125.5Z" transform="translate(-257.53 -117.07)"/><path class="cls-9" d="M1569.24,1001.2l-78.42-45.27c-4.84-2.8-12.69-2.8-17.54,0l-78.42,45.27c-4.84,2.8-4.84,7.33,0,10.13l78.42,45.28c4.85,2.79,12.69,2.79,17.54,0l78.42-45.28C1574.08,1008.53,1574.08,1004,1569.24,1001.2Z" transform="translate(-257.53 -117.07)"/><path class="cls-11" d="M1482.05,952.53a16.61,16.61,0,0,1,8,1.86l84.86,49c1.52.88,2.43,2,2.43,2.88s-.91,2-2.43,2.88l-84.86,49a18,18,0,0,1-16,0l-84.86-49c-1.52-.88-2.43-2-2.43-2.88s.91-2,2.43-2.88l84.86-49a16.61,16.61,0,0,1,8-1.86m0-3a19.44,19.44,0,0,0-9.49,2.26l-84.86,49c-5.24,3-5.24,7.93,0,11l84.86,49a21,21,0,0,0,19,0l84.86-49c5.24-3,5.24-7.93,0-11l-84.86-49a19.41,19.41,0,0,0-9.49-2.26Z" transform="translate(-257.53 -117.07)"/><path class="cls-32" d="M1580.33,1091.91c0,2.26-1.52,4-3.93,5.48l-84.86,49a19.24,19.24,0,0,1-9.49,2.27V1063a19.27,19.27,0,0,0,9.49-2.26l84.86-49c2.11-1.2,3.93-3,3.93-5.47Z" transform="translate(-257.53 -117.07)"/><path class="cls-33" d="M1383.77,1091.91c0,2.26,1.52,4,3.93,5.48l84.86,49a19.24,19.24,0,0,0,9.49,2.27V1063a19.27,19.27,0,0,1-9.49-2.26l-84.86-49c-2.11-1.2-3.93-3-3.93-5.47Z" transform="translate(-257.53 -117.07)"/><path class="cls-11" d="M1576.4,911.53l-84.86-49c-5.24-3-13.74-3-19,0l-84.86,49c-5.24,3-5.24,7.93,0,11l84.86,49c5.24,3,13.74,3,19,0l84.86-49C1581.64,919.46,1581.64,914.55,1576.4,911.53Z" transform="translate(-257.53 -117.07)"/><path class="cls-9" d="M1569.24,911.94l-78.42-45.27c-4.84-2.8-12.69-2.8-17.54,0l-78.42,45.27c-4.84,2.8-4.84,7.33,0,10.13l78.42,45.28c4.85,2.79,12.69,2.79,17.54,0l78.42-45.28C1574.08,919.27,1574.08,914.74,1569.24,911.94Z" transform="translate(-257.53 -117.07)"/><path class="cls-11" d="M1482.05,863.27a16.61,16.61,0,0,1,8,1.86l84.86,49c1.52.87,2.43,2,2.43,2.88s-.91,2-2.43,2.88l-84.86,49a18,18,0,0,1-16,0l-84.86-49c-1.52-.88-2.43-2-2.43-2.88s.91-2,2.43-2.88l84.86-49a16.61,16.61,0,0,1,8-1.86m0-3a19.44,19.44,0,0,0-9.49,2.26l-84.86,49c-5.24,3-5.24,7.93,0,11l84.86,49a21,21,0,0,0,19,0l84.86-49c5.24-3,5.24-7.93,0-11l-84.86-49a19.41,19.41,0,0,0-9.49-2.26Z" transform="translate(-257.53 -117.07)"/><path class="cls-32" d="M1580.33,1002.65c0,2.26-1.52,4-3.93,5.48l-84.86,49a19.24,19.24,0,0,1-9.49,2.27V973.74a19.27,19.27,0,0,0,9.49-2.26l84.86-49c2.11-1.2,3.93-3,3.93-5.47Z" transform="translate(-257.53 -117.07)"/><path class="cls-33" d="M1383.77,1002.65c0,2.26,1.52,4,3.93,5.48l84.86,49a19.24,19.24,0,0,0,9.49,2.27V973.74a19.27,19.27,0,0,1-9.49-2.26l-84.86-49c-2.11-1.2-3.93-3-3.93-5.47Z" transform="translate(-257.53 -117.07)"/><path class="cls-11" d="M1576.4,821.89l-84.86-49c-5.24-3-13.74-3-19,0l-84.86,49c-5.24,3-5.24,7.94,0,11l84.86,49c5.24,3,13.74,3,19,0l84.86-49C1581.64,829.82,1581.64,824.92,1576.4,821.89Z" transform="translate(-257.53 -117.07)"/><path class="cls-9" d="M1569.24,822.31,1490.82,777c-4.84-2.79-12.69-2.79-17.54,0l-78.42,45.28c-4.84,2.8-4.84,7.33,0,10.12l78.42,45.28c4.85,2.8,12.69,2.8,17.54,0l78.42-45.28C1574.08,829.64,1574.08,825.1,1569.24,822.31Z" transform="translate(-257.53 -117.07)"/><path class="cls-11" d="M1482.05,773.63a16.5,16.5,0,0,1,8,1.87l84.86,49c1.52.88,2.43,2,2.43,2.88s-.91,2-2.43,2.88l-84.86,49a18.09,18.09,0,0,1-16,0l-84.86-49c-1.52-.88-2.43-2-2.43-2.88s.91-2,2.43-2.88l84.86-49a16.5,16.5,0,0,1,8-1.87m0-3a19.44,19.44,0,0,0-9.49,2.27l-84.86,49c-5.24,3-5.24,7.94,0,11l84.86,49a21,21,0,0,0,19,0l84.86-49c5.24-3,5.24-7.93,0-11l-84.86-49a19.42,19.42,0,0,0-9.49-2.27Z" transform="translate(-257.53 -117.07)"/><path class="cls-32" d="M1580.33,913c0,2.27-1.52,4-3.93,5.48l-84.86,49a19.35,19.35,0,0,1-9.49,2.27V884.11a19.28,19.28,0,0,0,9.49-2.27l84.86-49c2.11-1.21,3.93-3,3.93-5.48Z" transform="translate(-257.53 -117.07)"/><path class="cls-33" d="M1383.77,913c0,2.27,1.52,4,3.93,5.48l84.86,49a19.35,19.35,0,0,0,9.49,2.27V884.11a19.28,19.28,0,0,1-9.49-2.27l-84.86-49c-2.11-1.21-3.93-3-3.93-5.48Z" transform="translate(-257.53 -117.07)"/><path class="cls-11" d="M1686.85,1124.8l-84.86-49c-5.23-3-13.73-3-19,0l-84.86,49c-5.24,3-5.24,7.93,0,11l84.86,49c5.24,3,13.73,3,19,0l84.86-49C1692.09,1132.73,1692.09,1127.82,1686.85,1124.8Z" transform="translate(-257.53 -117.07)"/><path class="cls-35" d="M1686.85,1263.88l-84.86-49c-5.23-3-13.73-3-19,0l-84.86,49c-5.24,3-5.24,7.94,0,11l84.86,49c5.24,3,23.73,3,29,0l74.86-49C1692.09,1271.81,1692.09,1266.91,1686.85,1263.88Z" transform="translate(-257.53 -117.07)"/><path class="cls-9" d="M1679.7,1125.21l-78.43-45.27c-4.84-2.8-12.69-2.8-17.53,0l-78.42,45.27c-4.85,2.8-4.85,7.33,0,10.13l78.42,45.28c4.84,2.79,12.69,2.79,17.53,0l78.43-45.28C1684.54,1132.54,1684.54,1128,1679.7,1125.21Z" transform="translate(-257.53 -117.07)"/><path class="cls-11" d="M1592.51,1076.54a16.54,16.54,0,0,1,8,1.86l84.86,49c1.52.88,2.43,1.95,2.43,2.88s-.91,2-2.43,2.88l-84.86,49a18,18,0,0,1-16,0l-84.86-49c-1.52-.88-2.43-2-2.43-2.88s.91-2,2.43-2.88l84.86-49a16.58,16.58,0,0,1,8-1.86m0-3a19.41,19.41,0,0,0-9.49,2.26l-84.86,49c-5.24,3-5.24,7.93,0,11l84.86,49a21,21,0,0,0,19,0l84.86-49c5.24-3,5.24-7.93,0-11l-84.86-49a19.4,19.4,0,0,0-9.48-2.26Z" transform="translate(-257.53 -117.07)"/><path class="cls-32" d="M1690.78,1215.92c0,2.26-1.51,4-3.93,5.48l-84.86,49a19.23,19.23,0,0,1-9.48,2.27V1187a19.23,19.23,0,0,0,9.48-2.26l84.86-49c2.11-1.2,3.93-3,3.93-5.47Z" transform="translate(-257.53 -117.07)"/><path class="cls-33" d="M1494.22,1215.92c0,2.26,1.53,4,3.93,5.48l84.86,49a19.31,19.31,0,0,0,9.5,2.27V1187a19.31,19.31,0,0,1-9.5-2.26l-84.86-49c-2.1-1.2-3.93-3-3.93-5.47Z" transform="translate(-257.53 -117.07)"/><path class="cls-11" d="M1686.85,1035.54l-84.86-49c-5.23-3-13.73-3-19,0l-84.86,49c-5.24,3-5.24,7.93,0,11l84.86,49c5.24,3,13.73,3,19,0l84.86-49C1692.09,1043.47,1692.09,1038.56,1686.85,1035.54Z" transform="translate(-257.53 -117.07)"/><path class="cls-9" d="M1679.7,1036l-78.43-45.27c-4.84-2.8-12.69-2.8-17.53,0L1505.32,1036c-4.85,2.8-4.85,7.33,0,10.13l78.42,45.28c4.84,2.79,12.69,2.79,17.53,0l78.43-45.28C1684.54,1043.28,1684.54,1038.75,1679.7,1036Z" transform="translate(-257.53 -117.07)"/><path class="cls-11" d="M1592.51,987.28a16.54,16.54,0,0,1,8,1.86l84.86,49c1.52.87,2.43,1.95,2.43,2.88s-.91,2-2.43,2.88l-84.86,49a18,18,0,0,1-16,0l-84.86-49c-1.52-.88-2.43-2-2.43-2.88s.91-2,2.43-2.88l84.86-49a16.58,16.58,0,0,1,8-1.86m0-3a19.41,19.41,0,0,0-9.49,2.26l-84.86,49c-5.24,3-5.24,7.93,0,11l84.86,49a21,21,0,0,0,19,0l84.86-49c5.24-3,5.24-7.93,0-11l-84.86-49a19.4,19.4,0,0,0-9.48-2.26Z" transform="translate(-257.53 -117.07)"/><path class="cls-32" d="M1690.78,1126.66c0,2.26-1.51,4-3.93,5.48l-84.86,49a19.23,19.23,0,0,1-9.48,2.27v-85.65a19.23,19.23,0,0,0,9.48-2.26l84.86-49c2.11-1.2,3.93-3,3.93-5.47Z" transform="translate(-257.53 -117.07)"/><path class="cls-33" d="M1494.22,1126.66c0,2.26,1.53,4,3.93,5.48l84.86,49a19.31,19.31,0,0,0,9.5,2.27v-85.65a19.31,19.31,0,0,1-9.5-2.26l-84.86-49c-2.1-1.2-3.93-3-3.93-5.47Z" transform="translate(-257.53 -117.07)"/><path class="cls-11" d="M1686.85,945.9l-84.86-49c-5.23-3-13.73-3-19,0l-84.86,49c-5.24,3-5.24,7.94,0,11l84.86,49c5.24,3,13.73,3,19,0l84.86-49C1692.09,953.83,1692.09,948.93,1686.85,945.9Z" transform="translate(-257.53 -117.07)"/><path class="cls-9" d="M1679.7,946.32,1601.27,901c-4.84-2.79-12.69-2.79-17.53,0l-78.42,45.28c-4.85,2.8-4.85,7.33,0,10.12l78.42,45.28c4.84,2.8,12.69,2.8,17.53,0l78.43-45.28C1684.54,953.65,1684.54,949.11,1679.7,946.32Z" transform="translate(-257.53 -117.07)"/><path class="cls-11" d="M1592.51,897.64a16.43,16.43,0,0,1,8,1.87l84.86,49c1.52.88,2.43,2,2.43,2.88s-.91,2-2.43,2.88l-84.86,49a18.07,18.07,0,0,1-16,0l-84.86-49c-1.52-.88-2.43-2-2.43-2.88s.91-2,2.43-2.88l84.86-49a16.47,16.47,0,0,1,8-1.87m0-3a19.42,19.42,0,0,0-9.49,2.27l-84.86,49c-5.24,3-5.24,7.94,0,11l84.86,49a21,21,0,0,0,19,0l84.86-49c5.24-3,5.24-7.93,0-11l-84.86-49a19.4,19.4,0,0,0-9.48-2.27Z" transform="translate(-257.53 -117.07)"/><path class="cls-32" d="M1690.78,1037c0,2.27-1.51,4-3.93,5.48l-84.86,49a19.34,19.34,0,0,1-9.48,2.27v-85.65a19.24,19.24,0,0,0,9.48-2.27l84.86-49c2.11-1.21,3.93-3,3.93-5.48Z" transform="translate(-257.53 -117.07)"/><path class="cls-33" d="M1494.22,1037c0,2.27,1.53,4,3.93,5.48l84.86,49a19.42,19.42,0,0,0,9.5,2.27v-85.65a19.32,19.32,0,0,1-9.5-2.27l-84.86-49c-2.1-1.21-3.93-3-3.93-5.48Z" transform="translate(-257.53 -117.07)"/><path class="cls-14" d="M1194.18,906.15l-15.24-31.27c-2.26-4.64-5.51-7.65-8.36-8.17a4,4,0,0,0-4.2,1.45l-14.32,11.06c-3.21,2.49-3.21,9.84,0,16.44s8.42,9.92,11.64,7.44l1-.79V1180.8c0,6.42,3.68,14,8.23,16.88h0c4.54,2.91,8.22.06,8.22-6.35v-279l1.38,2.84c3.22,6.59,8.43,9.92,11.64,7.44S1197.39,912.75,1194.18,906.15Z" transform="translate(-257.53 -117.07)"/><path class="cls-14" d="M1378.05,1444.3l-191.82-104c-9.74-5.29-17.64-19.84-17.64-32.52V990.71c0-12.68,7.9-18.67,17.64-13.39l191.82,104c9.74,5.28,17.64,19.84,17.64,32.51v317.08C1395.69,1443.59,1387.79,1449.58,1378.05,1444.3Z" transform="translate(-257.53 -117.07)"/><path class="cls-11" d="M1354.67,1453.45l-191.82-104c-9.74-5.29-17.64-19.84-17.64-32.52V999.86c0-12.68,7.9-18.67,17.64-13.39l191.82,104c9.74,5.28,17.64,19.84,17.64,32.51v317.09C1372.31,1452.74,1364.41,1458.74,1354.67,1453.45Z" transform="translate(-257.53 -117.07)"/><path class="cls-19" d="M1315.52,1372.37l-127-73.25c-2.28-1.31-4.12.17-4.12,3.32h0c0,3.14,1.84,6.76,4.12,8.07l127,73.25c2.27,1.31,4.12-.18,4.12-3.33h0C1319.64,1377.29,1317.79,1373.68,1315.52,1372.37Z" transform="translate(-257.53 -117.07)"/><path class="cls-36" d="M1228.68,1186.31q-2.13-11.54-4.25-22.43c-1.42-7.27-2.74-13.67-4-19.24a20.28,20.28,0,0,0-5-9.27,37.14,37.14,0,0,0-9-7.19,24.6,24.6,0,0,0-7-2.81,12.92,12.92,0,0,0-5.22-.34q-.7,2.12-2,6.15t-2.79,9.26q-1.52,5.22-3.24,11.09t-3.24,11.52q-1.53,5.64-2.79,10.52c-.85,3.26-1.51,6-2,8.25-.35,1.58-.65,3-.92,4.1a16.27,16.27,0,0,0-.4,3.7,15,15,0,0,0,2.48,8.22,21.49,21.49,0,0,0,7.65,6.87,15.78,15.78,0,0,0,3.8,1.7,17.14,17.14,0,0,0,3,.53c.54-2.49,1.08-5.08,1.62-7.75s1.08-5.28,1.62-7.76l18.34,10.57,1.82,10.73a49.24,49.24,0,0,0,1.17,4.87,16.24,16.24,0,0,0,1.72,3.94,15,15,0,0,0,2.74,3.26,23.94,23.94,0,0,0,4.1,2.93,14.84,14.84,0,0,0,5.78,2.14,4.35,4.35,0,0,0,3.65-1q-1.53-8.6-3.55-19.78T1228.68,1186.31ZM1200,1174.2q1.41-6.62,3.19-12.81t3.19-11.27l.61.36q1.21,6.45,2.68,14.5t2.89,16.46Z" transform="translate(-257.53 -117.07)"/><path class="cls-37" d="M1287.15,1182a57.52,57.52,0,0,0-21.38-20.6,69.49,69.49,0,0,0-8.87-4.33,27.69,27.69,0,0,0-7.85-2.08,4.36,4.36,0,0,0-3.2.75c-.77.63-1.16,1.92-1.16,3.89v66a27.44,27.44,0,0,0,.61,6.24,15.15,15.15,0,0,0,1.82,4.55,14.83,14.83,0,0,0,3,3.48,27.21,27.21,0,0,0,4.11,2.86,37.85,37.85,0,0,0,4.71,2.3,23.17,23.17,0,0,0,3.5,1.17v-25.79l7.18,4.14a29.33,29.33,0,0,0,10.9,4.11,10.86,10.86,0,0,0,7.8-1.67,13.35,13.35,0,0,0,4.66-6.85,36.13,36.13,0,0,0,1.57-11.5A51.65,51.65,0,0,0,1287.15,1182Zm-12.92,23.32q-2.28,1.42-6.54-1l-5.37-3.09v-21.73a15.17,15.17,0,0,1,2.18.9c.71.37,1.61.86,2.69,1.48a18,18,0,0,1,6.93,6.88,19.2,19.2,0,0,1,2.39,9.57C1276.51,1202,1275.75,1204.34,1274.23,1205.28Z" transform="translate(-257.53 -117.07)"/><path class="cls-38" d="M1321.29,1206.12v74a21,21,0,0,1-3.49-1.17,37.1,37.1,0,0,1-4.71-2.29,27.21,27.21,0,0,1-4.11-2.86,14.83,14.83,0,0,1-3-3.48,15.26,15.26,0,0,1-1.82-4.55,28,28,0,0,1-.61-6.24v-74c.75.24,1.92.66,3.55,1.27a30.86,30.86,0,0,1,4.65,2.19,27.21,27.21,0,0,1,4.11,2.86,15,15,0,0,1,3,3.47,15.44,15.44,0,0,1,1.83,4.56A28,28,0,0,1,1321.29,1206.12Z" transform="translate(-257.53 -117.07)"/><path class="cls-11" d="M1365.82,934.6l-15.24-31.27c-2.26-4.64-5.51-7.65-8.36-8.17a4.05,4.05,0,0,0-4.2,1.44l-14.32,11.07c-3.21,2.48-3.21,9.84,0,16.43s8.42,9.93,11.64,7.44l1-.78v278.49c0,6.42,3.68,14,8.23,16.88h0c4.54,2.91,8.22.06,8.22-6.36v-279l1.38,2.83c3.22,6.6,8.43,9.93,11.64,7.44S1369,941.19,1365.82,934.6Z" transform="translate(-257.53 -117.07)"/><ellipse class="cls-39" cx="1482.69" cy="823.62" rx="29.51" ry="38.07" transform="translate(-119.54 1740.24) rotate(-66.6)"/><path class="cls-40" d="M1042.23,724l-7.39-15.16c-1.1-2.25-2.67-3.71-4-4a2,2,0,0,0-2,.7l-6.94,5.36c-1.56,1.21-1.56,4.77,0,8s4.09,4.81,5.64,3.61l.49-.38v135c0,3.11,1.79,6.77,4,8.18h0c2.2,1.41,4,0,4-3.08V727l.67,1.37c1.56,3.19,4.08,4.81,5.64,3.61S1043.79,727.19,1042.23,724Z" transform="translate(-257.53 -117.07)"/><path class="cls-14" d="M1089.41,1040.86,988.08,985.92c-5.15-2.79-9.32-10.48-9.32-17.18V801.23c0-6.69,4.17-9.86,9.32-7.07l101.33,54.94c5.15,2.79,9.32,10.48,9.32,17.18v167.51C1098.73,1040.48,1094.56,1043.65,1089.41,1040.86Z" transform="translate(-257.53 -117.07)"/><path class="cls-11" d="M1077.06,1045.69,975.72,990.75c-5.14-2.79-9.32-10.48-9.32-17.17V806.07c0-6.7,4.18-9.87,9.32-7.08l101.34,54.94c5.14,2.79,9.32,10.49,9.32,17.18v167.51C1086.38,1045.32,1082.2,1048.49,1077.06,1045.69Z" transform="translate(-257.53 -117.07)"/><path class="cls-19" d="M1056.38,1002.86l-67.12-38.7c-1.2-.69-2.18.09-2.18,1.76h0a5.33,5.33,0,0,0,2.18,4.26l67.12,38.69c1.2.7,2.17-.09,2.17-1.75h0A5.32,5.32,0,0,0,1056.38,1002.86Z" transform="translate(-257.53 -117.07)"/><path class="cls-14" d="M1010.5,904.57q-1.12-6.09-2.24-11.85t-2.09-10.17a10.83,10.83,0,0,0-2.65-4.89,19.57,19.57,0,0,0-4.74-3.8,12.82,12.82,0,0,0-3.72-1.49,7,7,0,0,0-2.76-.18c-.24.75-.6,1.83-1,3.25s-.94,3-1.47,4.89-1.11,3.8-1.71,5.87-1.18,4.09-1.72,6.08-1,3.84-1.47,5.56-.8,3.17-1,4.36c-.18.83-.34,1.55-.49,2.16a8.7,8.7,0,0,0-.21,1.95,8,8,0,0,0,1.31,4.35,11.46,11.46,0,0,0,4,3.63,9.11,9.11,0,0,0,2,.9,10.75,10.75,0,0,0,1.58.28c.29-1.32.57-2.69.86-4.1s.57-2.79.85-4.1l9.69,5.59,1,5.66c.18.94.39,1.8.62,2.58a9,9,0,0,0,.91,2.08,7.94,7.94,0,0,0,1.45,1.72,13,13,0,0,0,2.16,1.55,7.83,7.83,0,0,0,3.06,1.13,2.29,2.29,0,0,0,1.92-.56q-.8-4.54-1.87-10.45T1010.5,904.57Zm-15.14-6.4c.49-2.33,1.06-4.59,1.68-6.77s1.19-4.17,1.69-5.95l.32.19q.65,3.4,1.42,7.66T1002,902Z" transform="translate(-257.53 -117.07)"/><path class="cls-14" d="M1041.39,902.27a30.47,30.47,0,0,0-11.29-10.88,36.73,36.73,0,0,0-4.69-2.29,14.68,14.68,0,0,0-4.15-1.1,2.26,2.26,0,0,0-1.69.4,2.58,2.58,0,0,0-.61,2.05v34.88a15,15,0,0,0,.32,3.3,7.8,7.8,0,0,0,2.54,4.24,15.58,15.58,0,0,0,2.17,1.51,20.35,20.35,0,0,0,2.49,1.21,11.81,11.81,0,0,0,1.85.62V922.59l3.8,2.19a15.46,15.46,0,0,0,5.75,2.16,5.66,5.66,0,0,0,4.12-.88,7.08,7.08,0,0,0,2.47-3.62,19.17,19.17,0,0,0,.83-6.07A27.32,27.32,0,0,0,1041.39,902.27Zm-6.82,12.32c-.81.5-2,.32-3.46-.55l-2.84-1.63V900.93a6.77,6.77,0,0,1,1.15.47l1.42.78a9.58,9.58,0,0,1,3.67,3.64,10.13,10.13,0,0,1,1.26,5.06C1035.77,912.85,1035.37,914.09,1034.57,914.59Z" transform="translate(-257.53 -117.07)"/><path class="cls-14" d="M1059.43,915v39.11a12.6,12.6,0,0,1-1.85-.62,20.35,20.35,0,0,1-2.49-1.21,15.58,15.58,0,0,1-2.17-1.51,8.15,8.15,0,0,1-1.58-1.84,8.32,8.32,0,0,1-1-2.41,14.83,14.83,0,0,1-.32-3.29v-39.1c.39.12,1,.35,1.87.67a16.28,16.28,0,0,1,2.46,1.16,14.26,14.26,0,0,1,2.17,1.51,7.44,7.44,0,0,1,1.58,1.83,8.28,8.28,0,0,1,1,2.41A14.83,14.83,0,0,1,1059.43,915Z" transform="translate(-257.53 -117.07)"/><ellipse class="cls-41" cx="1701.12" cy="699.05" rx="29.51" ry="38.07" transform="translate(126.47 1865.6) rotate(-66.6)"/><ellipse class="cls-42" cx="1699.9" cy="696.83" rx="13.34" ry="17.2" transform="translate(59.6 1789.39) rotate(-63.47)"/><ellipse class="cls-43" cx="1594.69" cy="942.73" rx="29.51" ry="38.07" transform="translate(-161.33 1914.83) rotate(-66.6)"/><ellipse class="cls-44" cx="1593.47" cy="940.51" rx="13.34" ry="17.2" transform="translate(-217.3 1828.99) rotate(-63.47)"/><ellipse class="cls-45" cx="1481.47" cy="821.4" rx="13.34" ry="17.2" transform="translate(-172.71 1662.89) rotate(-63.47)"/><path class="cls-46" d="M1613.59,762.45l-15.37-31.21c-2.28-4.63-5.55-7.63-8.4-8.14a4.05,4.05,0,0,0-4.19,1.46l-14.27,11.13c-3.21,2.5-3.18,9.85.06,16.43s8.47,9.89,11.67,7.39l1-.78,1.14,168.49c0,6.41,3.74,14,8.29,16.84h0c4.56,2.89,8.23,0,8.21-6.39l-1.15-169,1.4,2.83c3.24,6.58,8.46,9.89,11.66,7.39S1616.83,769,1613.59,762.45Z" transform="translate(-257.53 -117.07)"/><path class="cls-47" d="M1719.78,651.29l-15.37-31.21c-2.28-4.63-5.54-7.63-8.39-8.14a4,4,0,0,0-4.19,1.46l-14.28,11.13c-3.2,2.49-3.17,9.85.07,16.43s8.46,9.89,11.67,7.39l1-.78,1.13,33.51c0,6.42,3.74,14,8.3,16.85h0c4.56,2.89,8.23,0,8.2-6.39l-1.14-34,1.39,2.83c3.24,6.57,8.47,9.88,11.67,7.39S1723,657.86,1719.78,651.29Z" transform="translate(-257.53 -117.07)"/><path class="cls-48" d="M1503.13,678.66l-15.37-31.2c-2.28-4.64-5.54-7.64-8.39-8.14a4,4,0,0,0-4.19,1.46L1460.9,651.9c-3.2,2.5-3.17,9.86.07,16.44s8.46,9.89,11.67,7.39l1-.79,1.14,128.49c0,6.42,3.74,14,8.3,16.85h0c4.55,2.88,8.23,0,8.2-6.39l-1.14-129,1.39,2.82c3.24,6.58,8.46,9.89,11.67,7.4S1506.37,685.24,1503.13,678.66Z" transform="translate(-257.53 -117.07)"/><path class="cls-49" d="M1185.13,1155.35c.36-1.26.72-2.53,1.1-3.81,1.15-3.91,2.23-7.62,3.24-11.1s1.94-6.56,2.78-9.26,1.51-4.74,2-6.15a12.78,12.78,0,0,1,5.22.35,24.23,24.23,0,0,1,7,2.8,37,37,0,0,1,9,7.2,20.2,20.2,0,0,1,5,9.26q1.83,8.35,4,19.25c0,.17.07.34.1.51,3.28.71,6.58,1.41,9.88,2.1q5-3.91,10.31-7.69a4.19,4.19,0,0,1,1.13-3.1,4.32,4.32,0,0,1,3.2-.76c.34,0,.69.07,1,.13a30.66,30.66,0,0,1,6.8,2,68.28,68.28,0,0,1,8.87,4.34,59.84,59.84,0,0,1,17.1,14.4q26.37,4.61,53.48,8.41,8.19,1.15,16.45,2.22,9.71,1.26,19.5,2.42,11.64,1.37,23.39,2.59,48.38,5,98.53,7.38,41.57,1.93,84.16,2,7.08,0,14.12-.06,49.85-.37,98.28-3.44A1647.81,1647.81,0,0,0,1914.92,1168q24.27-4.93,47.81-10.54a13.15,13.15,0,0,0,1.47-5.79v-.78a15.62,15.62,0,0,1,1.44-6.38,11.71,11.71,0,0,1,5-5.81,4.16,4.16,0,0,1,3.55-.23,3.28,3.28,0,0,1,.66-.19,3.63,3.63,0,0,1,3.17.69,3.75,3.75,0,0,1,4,2,8.53,8.53,0,0,1,1.06,4.43v.41a7.3,7.3,0,0,0,.7,3.27,10.37,10.37,0,0,0,2.46-3.06l.19-.37c2.22-4.16,5.64-6.2,8.15-5.09a3.76,3.76,0,0,1,3.82.49,3.62,3.62,0,0,1,3.19.9,7.21,7.21,0,0,1,1.89,5.18q30.3-8.17,59.16-17.48,20-6.44,39.29-13.39l11.68-7.07,29.4-17.8v-8.9q4.41,1.79,8.76,3.6l3.06-1.85,17.46-10.57a3.51,3.51,0,0,1,1.28-1.89l36.53-23.89,16.46-10.77,5.81-3.8,11.26-7.36q-4.41-2.54-8.9-5-3.12-1.74-6.29-3.46l8.95-5.85q3.3,1.64,6.54,3.29,4.66,2.39,9.24,4.8l14.52-9.5c.78-.51,1.42-.12,1.42.88v4l7.32-4.43,6.58-4V972.9l-6.58-4.71V905.93c0-5.28-3.43-7.41-7.66-4.76l-42.21,26.49V863.43l1,.78c3.21,2.48,8.42-.85,11.63-7.44s3.22-13.95,0-16.43L2225,829.27a4,4,0,0,0-4.19-1.44c-2.85.51-6.1,3.53-8.36,8.17l-15.24,31.27c-3.22,6.59-3.22,14,0,16.43s8.42-.85,11.63-7.44l1.38-2.83V938l-36.59,23-3-246.25c-.09-7.29-4.83-10.48-10.59-7.13l-1.89,1.1-37.77,22v-106l.91.7c2.89,2.24,7.58-.76,10.47-6.7s2.89-12.55,0-14.78l-12.89-10a3.63,3.63,0,0,0-3.77-1.3c-2.57.46-5.49,3.17-7.53,7.35l-13.71,28.14c-2.89,5.94-2.89,12.56,0,14.79s7.58-.76,10.47-6.69l1.24-2.55V737.56l-38.65,24.25-12.62,7.92-9.65,6c-3.85,2.42-7,8.28-7,13.09V938.35c-1.83-.49-3.66-1-5.51-1.46-71.12-21.6-148.67-38.38-230.88-49.46v7q-5.46-.63-11-1.23l-5.29-.57-1.35-.14,6.51-3.76a8.42,8.42,0,0,0,2.74-2.4l2.47.32,4.38.57a5.57,5.57,0,0,0,1.44-2.82c0-.12,0-.24,0-.37a2.17,2.17,0,0,0,0-.36,4.7,4.7,0,0,0-.37-1.82,4.9,4.9,0,0,0,.37-1.8V794.41a4.73,4.73,0,0,0-.45-2,5.09,5.09,0,0,0,.45-2V704.77c0-2-1.31-4-3.93-5.48l-75.93-43.84a24.71,24.71,0,0,0-1.6-4.16l-15.37-31.21c-2.28-4.63-5.54-7.63-8.39-8.14a4,4,0,0,0-4.19,1.46l-14.28,11.13c-3.2,2.5-3.17,9.85.07,16.43s8.46,9.89,11.67,7.39l1-.78.15,4.48-81.83,47.24c-2.62,1.51-3.93,3.5-3.93,5.48v39.6l-6.46-13.13c-2.29-4.63-5.55-7.63-8.4-8.13a4,4,0,0,0-4.19,1.46l-14.27,11.12c-3.21,2.5-3.18,9.86.06,16.44s8.47,9.88,11.67,7.39l1-.79.77,113.4-4.54,0V827.38c0-2-1.31-4-3.93-5.48l-84.86-49a6.23,6.23,0,0,0-.63-.32l-.77-87.7,1.39,2.83c3.24,6.57,8.46,9.88,11.67,7.39s3.17-9.85-.07-16.43l-15.37-31.21c-2.28-4.63-5.54-7.63-8.39-8.14a4,4,0,0,0-4.19,1.46l-14.28,11.13c-3.2,2.49-3.17,9.85.07,16.43s8.46,9.89,11.66,7.39l1-.78.86,97a13.82,13.82,0,0,0-1.94.92l-84.86,49c-2.62,1.51-3.93,3.49-3.93,5.48V881.5a1584.73,1584.73,0,0,0-187.54,30.78,18.74,18.74,0,0,1,.35,4.06c-.07,2.78-.88,5.07-2.4,6.25-2.56,2-6.39.26-9.46-3.85l-3.56.74v-7.16l1.38,2.83.15.29q6.74-1.61,13.54-3.16a24.91,24.91,0,0,0-2-6.12l-15.24-31.27c-2.27-4.64-5.52-7.66-8.36-8.17a4,4,0,0,0-4.2,1.44l-14.32,11.07c-3.21,2.48-3.21,9.84,0,16.43s8.42,9.92,11.64,7.44l1-.78v17.53q-33.82,8.55-66,18.45v-72c0-6.7-4.17-14.39-9.32-17.18l-53.49-29V727l.67,1.37c1.56,3.2,4.08,4.81,5.64,3.61s1.56-4.77,0-8l-7.39-15.16c-1.1-2.25-2.67-3.71-4-4a2,2,0,0,0-2,.7l-6.94,5.37c-1.56,1.2-1.56,4.77,0,8s4.08,4.81,5.64,3.61l.49-.38v93.64l-39.86-21.61c-5-2.71-9.07.2-9.3,6.5L975.72,799c-5.14-2.79-9.32.37-9.32,7.07V973.58a20.9,20.9,0,0,0,1.89,8.34,853.89,853.89,0,0,0-80.86,36.92V1038l3.48,2.08a860.25,860.25,0,0,0,83.18,43.35q22.89,10.45,47.2,20.11,26.55,10.54,54.68,20.1,33.57,11.38,69.24,21.27,9.68,2.68,19.5,5.24l3.88,1,2.56.65M1801.08,795.6a5.09,5.09,0,0,1-1.22,2.24A5.9,5.9,0,0,0,1801.08,795.6Zm0-89.63a5.29,5.29,0,0,1-1.22,2.24A5.9,5.9,0,0,0,1801.08,706Zm-722,340.53c1.82-.56,3.64-1.1,5.47-1.64A5.07,5.07,0,0,1,1079.06,1046.5Zm273.74,21.37v-.24l.36.2A2.2,2.2,0,0,0,1352.8,1067.87Zm31.14-239.24a6.63,6.63,0,0,0,2.42,3.32A6.26,6.26,0,0,1,1383.94,828.63Zm71.9,43.56,3.93-2.27,3.94,2.28-3.93,2.27-1.54.89q-4.44.25-8.86.56Zm7.55,89.45-.48.28-3.46,2-3.42-2-1.4.21.89-.51,3.45-2,.48-.28,2.84,1.63,2.92-.41Zm18.66-77.53c.47,0,.92,0,1.37,0-.46,0-.91,0-1.37,0Zm0,89.63h0c-.46,0-.91,0-1.37,0C1481.13,973.72,1481.58,973.74,1482.05,973.74Zm0,89.27c-.46,0-.91,0-1.37,0,.45,0,.9,0,1.37,0s.92,0,1.37,0C1483,1063,1482.51,1063,1482.05,1063Zm0-4.31V1058l6-.24A19.76,19.76,0,0,1,1482.05,1058.7Zm12.17-1.12-3.83.13c.4-.18.78-.38,1.15-.59l2.68-1.55Zm0-104.23v-2a4.79,4.79,0,0,0,.59,2.3Zm6.17-81.15,1.78,1-3.81.14Zm.32,89.44,2.86-1.65,1.08-.62,2.85-1.65.49.28-2.86,1.65-1.07.61,3.45,2-3.46-2-2.86,1.65Zm9.92,88.08-3.45,2-3.13-1.81h0l-.79-.46,3.45-2,.48-.28.81.47,3.13,1.81Zm6.85-167.66-13.16-7.59,2.44-1.41,1.5-.87,1.35.78,15.44,8.91Zm62.68-53.43a6.26,6.26,0,0,1-2.42,3.32A6.63,6.63,0,0,0,1580.16,828.63Zm.17,83.8V913a5.31,5.31,0,0,1-.45,2,6.7,6.7,0,0,0-1.6-2.12C1579,912.72,1579.63,912.56,1580.33,912.43Zm-2.59,98.42a6.69,6.69,0,0,0,2.42-3.33A6.25,6.25,0,0,1,1577.74,1010.85Zm2.32-6.69c0,.09-.06.19-.1.28-.08-.16-.15-.32-.24-.48l.34.19,3,1.71Zm12.44,89a1.72,1.72,0,0,0,0,.32,1.66,1.66,0,0,0,0,.32h0Zm0,93.89c-.46,0-.92,0-1.37,0,.45,0,.91,0,1.37,0s.92,0,1.37,0C1593.41,1187,1593,1187,1592.5,1187Zm2.49-89.39c-.37,0-.75.07-1.12.08s-.91,0-1.37,0-.92,0-1.37,0c.45,0,.91,0,1.37,0s.92,0,1.37,0,.75,0,1.11-.09l.21,0Zm11.07-389.42a5.29,5.29,0,0,1-1.22-2.24A5.9,5.9,0,0,0,1606.06,708.21Zm-4.77,164.13,3.39.07v7.64a5.15,5.15,0,0,0,.31,1.67h.12l-.06.13-.06-.13-3.64-.07Zm3.39,81.41-2.06-.08a11.9,11.9,0,0,0,2.06-1Zm.67-67.62-.67,0v-2.44a2.17,2.17,0,0,0,0,.36c0,.13,0,.25,0,.37a5.43,5.43,0,0,0,.23.88,7.89,7.89,0,0,0,.39.84h0a7.32,7.32,0,0,0,1.06,1.37A6.15,6.15,0,0,1,1605.35,886.13Zm6.29,199.8-.48-.28,3.94-2.27.48.28Zm3.13-87.45-3.94-2.28,3.94-2.27,3.94,2.27Zm69-159.17-3.46,2-3.94-2.27,3.46-2,.48-.28,3.94,2.27Zm4.37,206.29a6.69,6.69,0,0,0,2.42-3.33A6.29,6.29,0,0,1,1688.19,1045.6Zm2.59-8.57a5,5,0,0,1-.45,2,7.3,7.3,0,0,0-2-2.51,22.94,22.94,0,0,1,2.49-.13Zm0-14.18v-.62l1.24.71C1691.61,1022.9,1691.2,1022.87,1690.78,1022.85ZM1703,761.51c-.46,0-.91,0-1.37,0,.45,0,.91,0,1.37,0Zm397,200.4c-.39.23-.72,0-.73-.49l0-2v0l3.09,1.14Zm33,36.18-1.58.92c-.2.11-.36,0-.36-.24l0-2.32a.81.81,0,0,1,.35-.65l1.58-.92c.2-.12.36,0,.36.24l0,2.31A.83.83,0,0,1,2133,998.09Zm21.08-3-.24-.1a15.1,15.1,0,0,0,1.32-1.43A12,12,0,0,1,2154.12,995.05Zm56.05,8.8v3.93l-3.36-1.73Zm0,25.62v-8l-3.14-1.6,3.14-2.06v3.66q3.43,1.75,6.82,3.54Z" transform="translate(-257.53 -117.07)"/><g class="cls-50"><path class="cls-9" d="M1593.46,367.38A2012.7,2012.7,0,0,1,1956.15,396q45,7.79,89.55,17.71t88.58,22.43a1490.57,1490.57,0,0,1,172.94,59.95c56.37,23.68,111.3,51.25,163.6,83.58,3.3,2,6.5,4.11,9.75,6.15l9.72,6.21c6.43,4.23,12.8,8.55,19.19,12.85,6.27,4.46,12.61,8.85,18.84,13.38l9.29,6.9c3.09,2.29,6.2,4.58,9.22,7a768.06,768.06,0,0,1,70,60.89c1.41,1.34,2.77,2.72,4.12,4.12l4.07,4.17c2.7,2.79,5.45,5.53,8.1,8.37l7.9,8.6,3.95,4.3,3.82,4.42,7.64,8.85c2.52,3,4.93,6.05,7.4,9.07,5,6,9.62,12.32,14.34,18.55l1.76,2.35,1.7,2.39,3.38,4.81,3.37,4.81c1.13,1.6,2.27,3.19,3.32,4.85,4.26,6.6,8.67,13.08,12.62,19.89a459.47,459.47,0,0,1,22.41,41.62c3.25,7.2,6.62,14.35,9.47,21.75l2.23,5.51,1.11,2.75,1,2.8,4,11.21c.69,1.86,1.27,3.76,1.85,5.66l1.77,5.69c1.16,3.8,2.39,7.58,3.34,11.45l3,11.54c.91,3.88,1.71,7.78,2.56,11.67l1.26,5.85,1,5.89c.65,3.94,1.37,7.86,2,11.81.94,7.92,2.12,15.82,2.57,23.8l.45,6,.23,3c.06,1,.07,2,.1,3l.37,12c0,1,.07,2,.06,3l0,3-.1,6c-.08,4-.05,8-.37,12l-.75,12c-.05,1-.14,2-.26,3l-.33,3-.65,6-.65,6c-.24,2-.59,3.95-.89,5.93l-1.85,11.85-2.37,11.75c-.4,1.95-.78,3.92-1.21,5.87l-1.45,5.81c-1,3.86-1.89,7.76-2.95,11.6l-3.42,11.47c-1.07,3.85-2.42,7.6-3.72,11.36l-2,5.65c-.66,1.88-1.27,3.79-2,5.62-2.92,7.4-5.7,14.88-9,22.09a460.12,460.12,0,0,1-21.36,42.52c-4,6.79-7.91,13.71-12.27,20.3-2.14,3.32-4.23,6.68-6.42,10l-6.72,9.74-3.37,4.86-3.52,4.74-7.05,9.49c-2.4,3.11-4.87,6.16-7.31,9.25s-4.85,6.19-7.43,9.15a687.7,687.7,0,0,1-65.08,67.63,837,837,0,0,1-72.69,58.56c-25.19,18.16-51.26,35-77.94,50.68-53.36,31.37-109.14,58.14-166.25,81.24q-42.84,17.31-86.62,32t-88.24,26.77c-59.25,16.37-119.35,29.25-179.82,39.65q-90.77,15.3-182.57,22.46l-11.46.89c-3.82.3-7.64.59-11.47.81l-22.94,1.44c-7.65.43-15.31.76-23,1.15-3.82.17-7.65.4-11.48.53l-11.48.4-11.49.4-5.74.19-5.75.12-23,.49-23,.18c-3.83,0-7.66.09-11.49.06l-11.49-.08-11.49-.07-5.74,0-5.75-.12-23-.48-23-.78c-3.83-.15-7.66-.23-11.48-.43l-11.48-.56c-15.31-.65-30.61-1.7-45.9-2.64-15.29-1.18-30.58-2.25-45.84-3.72-7.63-.69-15.27-1.37-22.89-2.22s-15.25-1.57-22.86-2.44l-22.84-2.73c-7.61-.92-15.2-2-22.81-3-30.38-4.18-60.7-8.9-90.88-14.49a1821.13,1821.13,0,0,1-179.26-42.3c-59-17.25-117.22-37.5-173.89-61.8s-111.94-52.22-164.53-85c-26.29-16.38-51.93-33.94-76.6-52.89A773.92,773.92,0,0,1,521.83,1337l-8.36-8.23-8.14-8.47c-5.5-5.57-10.65-11.5-15.93-17.29-2.67-2.87-5.14-5.93-7.7-8.91s-5.1-6-7.6-9l-7.35-9.23-3.67-4.62c-1.2-1.56-2.36-3.16-3.54-4.74-18.9-25.18-36-52-49.92-80.53a430,430,0,0,1-18.75-43.87l-3.9-11.31-1-2.83-.86-2.86-1.71-5.74c-2.41-7.61-4.22-15.41-6.18-23.15-.52-1.93-.86-3.9-1.28-5.86l-1.19-5.87-1.2-5.88c-.41-1.95-.65-3.95-1-5.92l-1.85-11.85c-.49-4-.89-8-1.34-11.93l-.64-6-.38-6c-.24-4-.53-8-.72-12l-.19-12c0-2-.11-4,0-6l.18-6a369.94,369.94,0,0,1,4.27-47.71l2-11.8c.31-2,.74-3.92,1.17-5.87l1.27-5.84c1.56-7.82,3.8-15.47,5.81-23.17,1.09-3.83,2.35-7.6,3.52-11.4l1.78-5.69c.62-1.89,1.34-3.74,2-5.61l4.05-11.19,4.49-11,2.26-5.5,2.47-5.39L407.68,840,413,829.46l2.69-5.28,2.88-5.16,5.77-10.32,6.13-10.08,3.07-5c1.05-1.67,2.16-3.29,3.23-4.93l6.49-9.82c2.21-3.24,4.53-6.4,6.79-9.6s4.5-6.42,6.93-9.49l7.13-9.31,1.79-2.33,1.85-2.27,3.71-4.53a629.24,629.24,0,0,1,64.29-67.55,812.14,812.14,0,0,1,72.07-58.31q37.51-27,77.43-50.23c53.08-31,108.59-57.24,165.42-79.77q42.63-16.86,86.2-31c29-9.44,58.25-18.16,87.74-25.88s59.13-14.72,88.93-21c7.45-1.52,14.89-3.13,22.36-4.57l22.43-4.26c15-2.64,30-5.31,45-7.62a2028,2028,0,0,1,363-23.92c-121.19,2.81-242,14.88-360.64,37.65-14.84,2.79-29.61,5.92-44.37,9l-22.09,4.93c-7.36,1.64-14.68,3.47-22,5.19q-44,10.62-87.36,23.39a1565.24,1565.24,0,0,0-169.87,60.77c-55.24,23.55-109,50.55-159.87,81.91s-99,66.91-142,107.72A608.31,608.31,0,0,0,498.56,763l-3.41,4.32-1.7,2.17-1.63,2.21-6.52,8.85c-2.22,2.92-4.23,6-6.31,9s-4.17,6-6.17,9.06L467,807.87c-1,1.55-2,3.07-2.92,4.63l-2.75,4.72-5.51,9.44-5.15,9.61-2.57,4.81L445.67,846l-4.76,9.78-4.36,10-2.18,5-2,5.05-3.93,10.1L425,896.06c-.57,1.71-1.19,3.41-1.72,5.13l-1.53,5.18c-1,3.46-2.09,6.89-3,10.37-1.68,7-3.61,13.92-4.88,21L412.76,943c-.36,1.76-.73,3.52-1,5.3l-1.64,10.62a330.05,330.05,0,0,0-3.17,42.81l-.09,5.37c0,1.79.09,3.57.12,5.36l.34,10.72c.23,3.57.55,7.14.81,10.7l.41,5.35.67,5.32c.46,3.54.86,7.09,1.35,10.63l1.82,10.58c.32,1.75.54,3.53.95,5.27l1.15,5.25,1.14,5.24c.39,1.74.71,3.5,1.21,5.22,1.86,6.92,3.55,13.88,5.83,20.68l1.61,5.13.8,2.57.91,2.53,3.65,10.12a389,389,0,0,0,17.51,39.43c3.14,6.49,6.79,12.73,10.27,19.06.85,1.59,1.79,3.13,2.73,4.67l2.82,4.64,2.81,4.64,1.41,2.32,1.49,2.27c4,6,7.87,12.16,12.17,18,2.12,2.94,4.16,6,6.34,8.85l6.61,8.68c1.11,1.44,2.19,2.9,3.32,4.33l3.45,4.23,6.9,8.47c2.36,2.78,4.79,5.51,7.17,8.27s4.73,5.55,7.26,8.19c5,5.34,9.85,10.8,15.05,16l7.69,7.83,7.91,7.63c42.32,40.65,90.19,75.8,140.7,106.68,25.28,15.44,51.29,29.77,77.81,43.14s53.59,25.78,81,37.28A1507.67,1507.67,0,0,0,1021,1551.19c57.41,16.48,115.79,29.73,174.65,40.41,29.43,5.34,59,9.89,88.67,13.9,7.42,1,14.83,2,22.26,2.87l22.3,2.61c7.44.84,14.89,1.55,22.33,2.33s14.9,1.46,22.36,2.11c14.9,1.43,29.84,2.46,44.76,3.6,15,.91,29.89,1.92,44.85,2.54l11.22.54c3.74.19,7.49.27,11.23.41l22.45.75,22.46.45,5.62.11,5.61,0,11.24.08,11.23.08c3.75,0,7.49,0,11.24,0l22.46-.16,22.46-.46,5.62-.11,5.61-.19,11.23-.38,11.23-.38c3.74-.13,7.48-.35,11.22-.51,7.47-.37,15-.69,22.43-1.1l22.42-1.39c3.74-.21,7.47-.49,11.2-.78l11.2-.83q89.58-6.74,178.25-21.45,44.27-7.4,88.14-16.77c29.24-6.24,58.28-13.32,87.14-21s57.49-16.22,85.85-25.5,56.42-19.42,84.12-30.39,55-22.82,81.87-35.61,53.21-26.52,78.9-41.32c51.35-29.62,100.26-63.37,144.28-102.37a650.41,650.41,0,0,0,61.63-62.52c2.44-2.72,4.68-5.6,7-8.41s4.63-5.63,6.88-8.49l6.61-8.68,3.31-4.34,3.15-4.44,6.31-8.89c2-3,4-6,6-9.06,4.09-6,7.69-12.27,11.49-18.44a417.16,417.16,0,0,0,19.95-38.4c3.13-6.5,5.7-13.21,8.46-19.85.71-1.65,1.27-3.36,1.89-5l1.83-5.07c1.21-3.38,2.48-6.74,3.49-10.18l3.21-10.27c1-3.44,1.86-6.92,2.8-10.38l1.38-5.19c.42-1.74.78-3.5,1.17-5.24l2.29-10.5,1.81-10.58c.29-1.76.65-3.52.88-5.29l.66-5.33.67-5.32.33-2.66c.13-.89.22-1.78.28-2.67l.83-10.7c.36-3.57.37-7.15.5-10.73l.17-5.36.09-2.69c0-.89,0-1.79,0-2.68l-.16-10.74c0-.9,0-1.79-.05-2.69l-.17-2.68-.32-5.36c-.29-7.17-1.25-14.27-1.95-21.41-.46-3.56-1.06-7.09-1.58-10.64l-.81-5.33-1-5.28c-.71-3.52-1.36-7.05-2.12-10.57l-2.56-10.48c-.79-3.51-1.85-6.95-2.86-10.41l-1.5-5.19c-.5-1.73-1-3.47-1.6-5.17L2706,889.63l-.86-2.57-1-2.53-1.94-5.06c-2.47-6.79-5.48-13.39-8.33-20.05a422.15,422.15,0,0,0-20-38.76c-3.53-6.38-7.54-12.49-11.38-18.7-.94-1.56-2-3.06-3-4.58l-3.07-4.55-3.07-4.55-1.54-2.27-1.62-2.22a583.39,583.39,0,0,0-56.58-67.68c-41.27-42.35-88.25-79.48-138.27-112.06s-103.14-60.83-157.88-85.5-111.27-45.67-168.74-63.71q-43.12-13.51-87-24.8t-88.2-20.39C1835.27,385.26,1714.6,371.67,1593.46,367.38Z" transform="translate(-257.53 -117.07)"/></g><g class="cls-51"><path class="cls-11" d="M1580.9,564.39a1550.55,1550.55,0,0,1,274.2,23.32q33.95,6,67.62,13.68t66.85,17.2A1132.68,1132.68,0,0,1,2120,664.24a892.93,892.93,0,0,1,123.22,63.25A670.53,670.53,0,0,1,2300.39,767a578.37,578.37,0,0,1,52.59,45.8c2.12,2,4.1,4.14,6.15,6.22s4.07,4.17,6.08,6.29l5.91,6.45,3,3.23c1,1.09,1.91,2.21,2.87,3.31l5.72,6.64c1.9,2.22,3.69,4.54,5.54,6.8l2.75,3.42,1.38,1.71,1.32,1.75,5.28,7c1.8,2.32,3.43,4.76,5.12,7.15s3.4,4.78,5,7.23c3.17,4.94,6.49,9.78,9.43,14.88A344.89,344.89,0,0,1,2435.21,926c2.41,5.39,4.95,10.71,7.06,16.24l1.66,4.1c.56,1.37,1.1,2.74,1.58,4.14l3,8.36c.51,1.39,1,2.8,1.38,4.22l1.31,4.24c.86,2.83,1.79,5.64,2.48,8.53l2.24,8.6c.69,2.88,1.27,5.79,1.9,8.69l.93,4.35.74,4.38c.48,2.93,1,5.85,1.44,8.79.68,5.9,1.56,11.78,1.87,17.71l.33,4.45.16,2.22c0,.74,0,1.48.08,2.22l.25,8.91c.06,1.49,0,3,0,4.46l-.08,4.45c-.07,3-.06,6-.31,8.91l-.58,8.9c-.25,3-.64,5.91-.95,8.86l-.5,4.43c-.19,1.48-.46,2.94-.68,4.41l-1.41,8.8-1.79,8.73c-.31,1.46-.58,2.92-.93,4.36l-1.09,4.32c-.75,2.87-1.42,5.77-2.24,8.62l-2.56,8.53c-.8,2.86-1.84,5.64-2.8,8.44l-1.47,4.2c-.49,1.4-1,2.81-1.53,4.18-2.19,5.5-4.3,11-6.8,16.42l-1.8,4-.91,2-1,2-3.93,8-1,2-1.05,2-2.11,3.89L2424,1195c-.7,1.31-1.41,2.6-2.18,3.86-3,5.07-5.95,10.2-9.22,15.11-1.61,2.47-3.16,5-4.83,7.41l-5.05,7.25c-.85,1.2-1.67,2.42-2.54,3.61l-2.65,3.53-5.29,7.06-5.51,6.89c-1.84,2.29-3.65,4.6-5.59,6.81a517.85,517.85,0,0,1-49,50.39c-34.85,31.21-73.21,58.11-113.39,81.51a960.27,960.27,0,0,1-125.25,60.68q-32.27,12.93-65.27,23.89t-66.51,20c-44.66,12.2-90,21.89-135.54,29.65-91.23,15.28-183.74,22.2-276.14,21.71a1605.7,1605.7,0,0,1-275.86-25.24,1386.9,1386.9,0,0,1-135.11-31.66,1152,1152,0,0,1-131-46.17c-42.7-18.12-84.31-39-123.93-63.48s-77.25-52.44-110.85-85.12L767,1286.5l-6.12-6.32c-4.12-4.16-8-8.56-12-12.89-2-2.14-3.88-4.4-5.8-6.62l-5.72-6.7-5.52-6.88-2.75-3.44c-.93-1.14-1.78-2.35-2.67-3.52a370.59,370.59,0,0,1-37.54-59.9,323.55,323.55,0,0,1-14.1-32.61l-2.93-8.4-.73-2.1-.65-2.13-1.28-4.27-1.29-4.26c-.21-.72-.43-1.42-.63-2.14l-.55-2.16-2.19-8.64c-.39-1.43-.66-2.89-1-4.35l-.91-4.37c-.6-2.91-1.23-5.81-1.65-8.76l-1.4-8.81c-.38-2.94-.68-5.9-1-8.86l-.49-4.43-.3-4.45c-.19-3-.41-5.93-.56-8.9l-.17-8.92c0-1.49-.09-3,0-4.46l.12-4.45a271.83,271.83,0,0,1,3.11-35.49l1.48-8.78c.22-1.47.55-2.92.87-4.37l.94-4.35c1.14-5.83,2.82-11.52,4.3-17.26.83-2.84,1.75-5.66,2.62-8.49l1.32-4.23c.48-1.4,1-2.79,1.49-4.18l3-8.35,3.35-8.21,1.69-4.09,1.84-4,3.7-8,4-7.89c.67-1.31,1.32-2.63,2-3.93l2.14-3.86,4.31-7.71,4.58-7.54,2.29-3.76,2.42-3.68,4.84-7.36c6.72-9.61,13.63-19.09,21.1-28.09s15.21-17.77,23.19-26.28c2-2.12,4.09-4.17,6.13-6.25s4.06-4.18,6.18-6.19l6.32-6,3.15-3,3.24-2.93C817.22,767,855.26,740,895.18,716.61a928,928,0,0,1,124.62-60.39A1189.64,1189.64,0,0,1,1151,612.85q33.38-8.9,67.13-16.1c5.63-1.17,11.24-2.42,16.89-3.51l16.93-3.3c11.31-2.05,22.62-4.12,34-5.92a1562.6,1562.6,0,0,1,274.49-19.76q-34.41.62-68.75,2.39-34.32,2-68.54,5.2c-45.6,4.43-91,10.66-136,19-11.26,2-22.46,4.34-33.67,6.62l-16.76,3.63c-5.59,1.2-11.15,2.56-16.72,3.83q-33.39,7.85-66.34,17.31a1191.05,1191.05,0,0,0-129.17,45.31A919.38,919.38,0,0,0,902.6,729.06C863.77,752.64,826.92,779.5,794,810.42l-3.1,2.88-3,3-6,5.93c-2,2-3.93,4-5.9,6.06s-3.92,4-5.83,6.12l-5.67,6.26-2.83,3.13-2.74,3.2-5.47,6.42c-1.83,2.14-3.53,4.38-5.29,6.56-7.09,8.73-13.58,17.88-19.89,27.13l-4.54,7.07-2.26,3.53-2.13,3.61L715,908.5l-4,7.36-2,3.68c-.64,1.24-1.24,2.49-1.86,3.74l-3.69,7.5-3.4,7.63-1.69,3.81-1.54,3.88-3.06,7.75L691,961.72c-.45,1.31-.93,2.62-1.36,3.94l-1.19,4c-.78,2.66-1.62,5.31-2.36,8-1.31,5.38-2.83,10.71-3.82,16.16l-.84,4.06c-.28,1.36-.58,2.71-.76,4.08l-1.31,8.19a255.35,255.35,0,0,0-2.57,33l-.07,4.14c0,1.38.06,2.76.08,4.14l.23,8.28c.17,2.76.41,5.51.61,8.26l.31,4.13.5,4.11c.35,2.74.64,5.48,1,8.21l1.39,8.17c.4,2.73,1,5.42,1.61,8.12l.87,4c.3,1.35.56,2.7.94,4l2.12,8,.52,2c.19.66.41,1.32.61,2l1.24,4,1.23,4,.62,2,.71,2,2.8,7.81a298.86,298.86,0,0,0,13.49,30.37A351.75,351.75,0,0,0,743.52,1227c.85,1.1,1.66,2.24,2.55,3.32l2.65,3.25,5.29,6.5,5.5,6.33c1.84,2.11,3.64,4.25,5.57,6.28,3.82,4.1,7.56,8.27,11.54,12.22l5.89,6,6.07,5.83c32.43,31.08,69,57.86,107.57,81.41a897,897,0,0,0,121.1,61.21,1153.91,1153.91,0,0,0,128.54,44.72,1360.17,1360.17,0,0,0,132.83,30.66,1585.67,1585.67,0,0,0,271.6,24.55,1602.46,1602.46,0,0,0,271.93-21c44.86-7.48,89.41-16.87,133.29-28.7q32.91-8.83,65.31-19.39t64-23.1a935.72,935.72,0,0,0,122.52-58.54c39.16-22.57,76.52-48.3,110.24-78.07a494.74,494.74,0,0,0,47.21-47.86c1.87-2.09,3.61-4.28,5.37-6.45l5.29-6.5,5.07-6.67,2.54-3.33c.84-1.12,1.62-2.27,2.43-3.4l4.83-6.83c1.6-2.28,3.07-4.65,4.62-7,3.14-4.61,5.94-9.42,8.84-14.17.74-1.18,1.42-2.39,2.08-3.61l2-3.64,2-3.65,1-1.82.94-1.86,3.76-7.43.94-1.86.86-1.89,1.73-3.79c2.4-5,4.4-10.17,6.5-15.29.55-1.28,1-2.59,1.47-3.89l1.41-3.91c.92-2.6,1.92-5.19,2.69-7.85l2.47-7.92c.78-2.65,1.42-5.34,2.15-8l1.06-4c.33-1.34.59-2.7.89-4.05l1.76-8.1,1.38-8.17c.22-1.36.48-2.72.67-4.09l.5-4.11c.31-2.74.71-5.48,1-8.22l.62-8.27c.27-2.75.27-5.51.37-8.27l.11-4.14c.05-1.38.09-2.76,0-4.14L2444,1038c0-.69,0-1.38-.05-2.07l-.13-2.07-.27-4.14c-.24-5.52-1-11-1.56-16.51-.37-2.73-.84-5.46-1.25-8.2l-.64-4.1-.82-4.07c-.56-2.71-1.07-5.43-1.67-8.13l-2-8.07c-.61-2.7-1.46-5.35-2.23-8l-1.18-4c-.38-1.33-.78-2.66-1.25-4l-2.7-7.88c-.43-1.32-.93-2.62-1.44-3.91L2425.3,949c-1.93-5.22-4.27-10.27-6.48-15.38A326.51,326.51,0,0,0,2403.31,904c-2.73-4.88-5.85-9.53-8.81-14.28-1.51-2.36-3.14-4.64-4.71-7s-3.12-4.66-4.81-6.9a441.51,441.51,0,0,0-43.59-51.45c-31.7-32.13-67.66-60.18-105.88-84.71s-78.69-45.75-120.36-64.22a1137.1,1137.1,0,0,0-128.34-47.54q-32.76-10-66-18.39t-66.94-15c-5.62-1.09-11.22-2.28-16.85-3.28l-16.88-3.09c-11.29-1.9-22.57-3.85-33.89-5.54-22.63-3.44-45.34-6.49-68.12-8.93s-45.6-4.51-68.47-6S1603.83,565.07,1580.9,564.39Z" transform="translate(-257.53 -117.07)"/></g><path class="cls-52" d="M2235.93,254.81c-5.33,26.17-20.1,45-46,43.78-3.8.86-16.57.28-20.58.27l-359-1c-19.08-.05-34.51-9.9-42.13-23.5a39.36,39.36,0,0,1-.45-38.19c5.58-10.63,15.5-18.58,27.29-22.44a56.89,56.89,0,0,1,58.56-38.1,78.23,78.23,0,0,1,145.41-15.83,86.31,86.31,0,0,1,148.5,44.72,53.5,53.5,0,0,1,88.37,50.3Z" transform="translate(-257.53 -117.07)"/><path class="cls-52" d="M1517.18,290.52c-6.7,32.85-25.25,56.45-57.72,55-4.76,1.07-20.79.34-25.84.33l-450.77-1.26c-24-.07-43.33-12.43-52.9-29.51a49.47,49.47,0,0,1-.56-48c7-13.34,19.46-23.33,34.26-28.16a71.43,71.43,0,0,1,73.53-47.84,98.22,98.22,0,0,1,182.58-19.88,108.38,108.38,0,0,1,186.46,56.15,67.17,67.17,0,0,1,111,63.16Z" transform="translate(-257.53 -117.07)"/><path class="cls-54" d="M1156.51,490.41c-15.6,17.11-35,24.55-53.68,12.19-3.21-1.05-112.33-24.78-115.32-26.57l-97.06-69c-99.66-66.68-91.31-96.28-91-109.8a34.15,34.15,0,0,1,16.63-28.64A40.75,40.75,0,0,1,846.41,264,49.33,49.33,0,0,1,907,261.64a67.83,67.83,0,0,1,115.33,52.79A74.85,74.85,0,0,1,1113,413.7a46.39,46.39,0,0,1,43.48,76.71Z" transform="translate(-257.53 -117.07)"/><path class="cls-54" d="M2032.88,461.06c15.6,17.12,34.95,24.56,53.68,12.19,3.21-1.05,112.33-24.77,115.32-26.56l97.06-69c99.66-66.68,91.31-96.29,90.95-109.8a34.18,34.18,0,0,0-16.63-28.65,40.87,40.87,0,0,0-30.29-4.59,49.32,49.32,0,0,0-60.53-2.36,67.84,67.84,0,0,0-115.34,52.79,74.84,74.84,0,0,0-90.74,99.26,46.39,46.39,0,0,0-43.48,76.71Z" transform="translate(-257.53 -117.07)"/><path class="cls-55" d="M1410.8,545.55c-5.71,26.33-21.54,41.76-49.25,32.25-4.06-.3-50.9,3.77-55.29,2.83C1038.27,522.88,954.87,456,954.87,456c-23.71-17.28-37.67-27.51-45.13-38.61-6.78-14.12-7.79-29.3-.48-41.06,6-9.61,16.6-15,29.23-15.34,9-23.6,35-32.8,62.74-22.14,11.1-39.56,54-53.92,97.86-31.9,26,13.05,46.73,36,57.93,61.31,21.22-16.56,53.51-18.53,86.33-2.07,38.69,19.41,66.76,58.77,72.78,97.34,13-8,31.38-8.17,50,1.16C1397.12,480.19,1417.13,516.42,1410.8,545.55Z" transform="translate(-257.53 -117.07)"/><path class="cls-56" d="M1752.87,535.51c5.72,26.33,21.54,41.76,49.25,32.24,4.06-.29,50.9,3.78,55.3,2.83,268-57.74,351.38-124.67,351.38-124.67,23.71-17.29,37.67-27.52,45.14-38.62,6.77-14.12,7.78-29.29.47-41.06-6-9.61-16.6-15-29.22-15.33-9-23.6-35-32.8-62.75-22.15-11.1-39.55-54-53.91-97.86-31.9-26,13-46.73,36-57.93,61.32-21.22-16.57-53.51-18.54-86.32-2.08-38.7,19.41-66.77,58.77-72.78,97.35-13.06-7.95-31.39-8.18-50,1.15C1766.55,470.15,1746.54,506.37,1752.87,535.51Z" transform="translate(-257.53 -117.07)"/><path class="cls-26" d="M1935.8,515.41c-7.43,29-30.4,37.46-59.9,51.37-14.22,5.63-35.47,15.82-41.6,15.8,0,0-103.63,27.36-252.16,27.36-205.48,0-295.38-28.89-295.38-28.89-29.09-.08-52.63-15.1-64.26-35.85a60.05,60.05,0,0,1-.68-58.25c8.5-16.21,23.64-28.33,41.61-34.21a86.77,86.77,0,0,1,89.32-58.11,119.31,119.31,0,0,1,221.78-24.14A131.63,131.63,0,0,1,1801,438.69a81.47,81.47,0,0,1,71.15-19.53C1916.32,428.16,1947,471.75,1935.8,515.41Z" transform="translate(-257.53 -117.07)"/><g class="cls-6"><path class="cls-11" d="M1580.9,564.39a1550.55,1550.55,0,0,1,274.2,23.32q33.95,6,67.62,13.68t66.85,17.2A1132.68,1132.68,0,0,1,2120,664.24a892.93,892.93,0,0,1,123.22,63.25A670.53,670.53,0,0,1,2300.39,767a578.37,578.37,0,0,1,52.59,45.8c2.12,2,4.1,4.14,6.15,6.22s4.07,4.17,6.08,6.29l5.91,6.45,3,3.23c1,1.09,1.91,2.21,2.87,3.31l5.72,6.64c1.9,2.22,3.69,4.54,5.54,6.8l2.76,3.42,1.37,1.71,1.32,1.75,5.28,7c1.8,2.32,3.43,4.76,5.12,7.15s3.4,4.78,5,7.23c3.17,4.94,6.49,9.78,9.43,14.88A344.89,344.89,0,0,1,2435.21,926c2.41,5.39,4.95,10.71,7.06,16.24l1.66,4.1c.56,1.37,1.1,2.74,1.58,4.14l3,8.36c.51,1.39,1,2.8,1.38,4.22l1.31,4.24c.86,2.83,1.79,5.64,2.48,8.53l2.24,8.6c.69,2.88,1.27,5.79,1.9,8.69l.93,4.35.74,4.38c.48,2.93,1,5.85,1.44,8.79.68,5.9,1.56,11.78,1.87,17.71l.33,4.45.16,2.22c0,.74,0,1.48.08,2.22l.25,8.91c.06,1.49,0,3,0,4.46l-.08,4.45c-.07,3-.06,6-.31,8.91l-.58,8.9c-.25,3-.64,5.91-.95,8.86l-.5,4.43c-.19,1.48-.46,2.94-.68,4.41l-1.41,8.8-1.79,8.73c-.31,1.46-.58,2.92-.93,4.36l-1.09,4.32c-.75,2.87-1.42,5.77-2.23,8.62l-2.57,8.53c-.8,2.86-1.84,5.64-2.8,8.44l-1.47,4.2c-.49,1.4-1,2.81-1.53,4.18-2.19,5.5-4.3,11-6.8,16.42l-1.8,4-.91,2-1,2-3.93,8-1,2-1.05,2-2.11,3.89L2424,1195c-.7,1.31-1.41,2.6-2.18,3.86-3,5.07-5.95,10.2-9.22,15.11-1.61,2.47-3.16,5-4.83,7.41l-5.05,7.25c-.85,1.2-1.67,2.42-2.54,3.61l-2.65,3.53-5.29,7.06-5.51,6.89c-1.84,2.29-3.65,4.6-5.59,6.81a517.85,517.85,0,0,1-49,50.39c-34.85,31.21-73.21,58.11-113.39,81.51a960.27,960.27,0,0,1-125.25,60.68q-32.27,12.93-65.27,23.89t-66.51,20c-44.66,12.2-90,21.89-135.54,29.65-91.23,15.28-183.74,22.2-276.14,21.71a1605.7,1605.7,0,0,1-275.86-25.24,1386.9,1386.9,0,0,1-135.11-31.66,1152,1152,0,0,1-131-46.17c-42.7-18.12-84.31-39-123.93-63.48s-77.25-52.44-110.85-85.12L767,1286.5l-6.12-6.32c-4.12-4.16-8-8.56-12-12.89-2-2.14-3.88-4.4-5.8-6.62l-5.72-6.7-5.52-6.88-2.75-3.44c-.93-1.14-1.78-2.35-2.67-3.52a370.59,370.59,0,0,1-37.54-59.9,323.55,323.55,0,0,1-14.1-32.61l-2.93-8.4-.73-2.11-.65-2.12-1.28-4.27-1.29-4.26c-.21-.72-.43-1.42-.63-2.14l-.55-2.16-2.19-8.64c-.39-1.43-.66-2.89-1-4.35l-.91-4.37c-.6-2.91-1.23-5.81-1.65-8.76l-1.4-8.81c-.38-2.94-.68-5.9-1-8.86l-.49-4.43-.3-4.45c-.19-3-.41-5.93-.56-8.9l-.17-8.92c0-1.49-.09-3,0-4.46l.12-4.45a271.83,271.83,0,0,1,3.11-35.49l1.48-8.79c.22-1.46.55-2.91.87-4.36l.94-4.35c1.14-5.83,2.82-11.52,4.3-17.26.83-2.84,1.75-5.66,2.62-8.49l1.32-4.23c.48-1.4,1-2.79,1.49-4.18l3-8.35,3.35-8.21,1.69-4.09,1.84-4,3.7-8,4-7.89c.67-1.31,1.32-2.63,2-3.93l2.14-3.86,4.31-7.71,4.58-7.54,2.29-3.76,2.42-3.68,4.84-7.36c6.72-9.61,13.63-19.09,21.1-28.1s15.21-17.76,23.19-26.27c2-2.12,4.09-4.17,6.13-6.25s4.06-4.18,6.18-6.19l6.32-6,3.15-3,3.24-2.93C817.22,767,855.26,740,895.18,716.61a928,928,0,0,1,124.62-60.39A1189.64,1189.64,0,0,1,1151,612.85q33.38-8.9,67.13-16.1c5.63-1.17,11.24-2.42,16.89-3.51l16.93-3.3c11.31-2.05,22.62-4.12,34-5.92a1562.6,1562.6,0,0,1,274.49-19.76q-34.41.62-68.75,2.39-34.32,2-68.54,5.2c-45.6,4.43-91,10.66-136,19-11.26,2-22.46,4.34-33.67,6.62l-16.76,3.63c-5.59,1.2-11.15,2.56-16.72,3.83q-33.39,7.85-66.34,17.31a1191.05,1191.05,0,0,0-129.17,45.31A919.38,919.38,0,0,0,902.6,729.06C863.77,752.64,826.92,779.5,794,810.42l-3.1,2.88-3,3-6,5.93c-2,2-3.93,4-5.9,6.06s-3.92,4-5.83,6.12l-5.67,6.26-2.83,3.13-2.74,3.2-5.47,6.43c-1.83,2.13-3.53,4.37-5.29,6.55-7.09,8.73-13.58,17.88-19.89,27.13l-4.53,7.07-2.27,3.53-2.13,3.61L715,908.5l-4,7.36-2,3.68c-.64,1.24-1.24,2.5-1.86,3.74l-3.69,7.5-3.4,7.63-1.69,3.81-1.54,3.88-3.06,7.75L691,961.72c-.45,1.31-.93,2.62-1.36,3.94l-1.19,4c-.78,2.66-1.62,5.31-2.36,8-1.31,5.38-2.83,10.71-3.82,16.16l-.84,4.06c-.28,1.36-.57,2.71-.76,4.08l-1.31,8.19a255.35,255.35,0,0,0-2.57,33l-.07,4.14c0,1.38.06,2.76.08,4.14l.23,8.28c.17,2.76.41,5.51.61,8.26l.31,4.13.5,4.11c.35,2.74.64,5.48,1,8.21l1.39,8.17c.4,2.73,1,5.42,1.61,8.12l.87,4c.3,1.35.56,2.7.94,4l2.12,8,.52,2c.19.66.41,1.32.61,2l1.24,4,1.23,4,.62,2,.71,1.95,2.8,7.81a298.86,298.86,0,0,0,13.49,30.37A351.75,351.75,0,0,0,743.52,1227c.85,1.1,1.66,2.24,2.55,3.32l2.65,3.25,5.29,6.5,5.5,6.33c1.84,2.11,3.64,4.25,5.57,6.28,3.82,4.1,7.56,8.27,11.54,12.22l5.89,6,6.07,5.83c32.43,31.08,69,57.86,107.57,81.41s79.28,43.72,121.1,61.21a1153.91,1153.91,0,0,0,128.54,44.72,1360.17,1360.17,0,0,0,132.83,30.66,1585.67,1585.67,0,0,0,271.6,24.55,1602.46,1602.46,0,0,0,271.93-21c44.86-7.48,89.41-16.87,133.29-28.7q32.91-8.83,65.31-19.39t64-23.1a935.72,935.72,0,0,0,122.52-58.54c39.16-22.57,76.52-48.3,110.24-78.07a494.74,494.74,0,0,0,47.21-47.86c1.87-2.09,3.61-4.28,5.37-6.45l5.29-6.5,5.07-6.67,2.54-3.33c.84-1.12,1.62-2.27,2.43-3.4l4.83-6.83c1.6-2.28,3.07-4.65,4.62-7,3.14-4.61,5.94-9.42,8.84-14.17.74-1.18,1.42-2.39,2.08-3.61l2-3.64,2-3.65,1-1.82.94-1.86,3.76-7.43.94-1.86.86-1.89,1.73-3.79c2.4-5,4.4-10.17,6.5-15.29.55-1.28,1-2.59,1.47-3.89l1.41-3.91c.92-2.6,1.92-5.19,2.69-7.85l2.47-7.92c.78-2.65,1.42-5.34,2.15-8l1.06-4c.33-1.34.59-2.7.89-4.05l1.76-8.1,1.38-8.17c.22-1.36.48-2.72.67-4.09l.5-4.11c.31-2.74.71-5.48,1-8.22l.62-8.27c.27-2.75.27-5.51.37-8.27l.11-4.14c.05-1.38.09-2.76,0-4.15L2444,1038c0-.69,0-1.38-.05-2.07l-.13-2.07-.27-4.14c-.24-5.52-1-11-1.56-16.51-.37-2.73-.84-5.46-1.25-8.2l-.64-4.1-.82-4.07c-.56-2.71-1.07-5.43-1.67-8.13l-2-8.07c-.61-2.7-1.46-5.35-2.23-8l-1.18-4c-.38-1.34-.78-2.66-1.25-4l-2.7-7.88c-.43-1.32-.93-2.62-1.44-3.91L2425.3,949c-1.93-5.22-4.27-10.27-6.48-15.38A326.51,326.51,0,0,0,2403.31,904c-2.73-4.88-5.85-9.53-8.81-14.28-1.51-2.36-3.14-4.64-4.71-7s-3.11-4.66-4.81-6.9a442.4,442.4,0,0,0-43.58-51.45c-31.71-32.13-67.67-60.18-105.89-84.71s-78.69-45.75-120.36-64.22a1137.1,1137.1,0,0,0-128.34-47.54q-32.76-10-66-18.39t-66.94-15c-5.62-1.09-11.22-2.28-16.85-3.28l-16.88-3.09c-11.29-1.9-22.57-3.85-33.89-5.54-22.63-3.44-45.34-6.49-68.12-8.92s-45.6-4.52-68.47-6.06S1603.83,565.07,1580.9,564.39Z" transform="translate(-257.53 -117.07)"/></g><path class="cls-9" d="M2474.54,549.36v.82A14.61,14.61,0,0,0,2496,563.11h0a14.6,14.6,0,0,0,7.81-12.93v-.82a14.62,14.62,0,0,0-21.94-12.65h0A14.61,14.61,0,0,0,2474.54,549.36Z" transform="translate(-257.53 -117.07)"/><path class="cls-57" d="M914.55,1788.46v3.48c0,46.2,49.11,75.86,90,54.33h0a61.39,61.39,0,0,0,32.81-54.33v-3.48c0-47.3-51.24-76.84-92.17-53.14h0A61.39,61.39,0,0,0,914.55,1788.46Z" transform="translate(-257.53 -117.07)"/><path class="cls-58" d="M257.53,960.93v1.42a25.06,25.06,0,0,0,36.73,22.18h0a25.07,25.07,0,0,0,13.39-22.18v-1.42A25.06,25.06,0,0,0,270,939.24h0A25.06,25.06,0,0,0,257.53,960.93Z" transform="translate(-257.53 -117.07)"/><path class="cls-59" d="M2452,1050.25v2.92c0,38.95,41.4,63.94,75.86,45.8h0a51.76,51.76,0,0,0,27.65-45.8v-2.92c0-39.87-43.18-64.77-77.68-44.79h0A51.74,51.74,0,0,0,2452,1050.25Z" transform="translate(-257.53 -117.07)"/><path class="cls-18" d="M2361.33,799.05v1.18a21,21,0,0,0,30.7,18.54h0a20.94,20.94,0,0,0,11.19-18.54v-1.18a20.94,20.94,0,0,0-31.44-18.13h0A20.93,20.93,0,0,0,2361.33,799.05Z" transform="translate(-257.53 -117.07)"/><path class="cls-60" d="M1974.89,1717.37v6.52c0,86.72,92.17,142.36,168.91,102h0a115.22,115.22,0,0,0,61.56-102v-6.52c0-88.77-96.15-144.21-173-99.73h0A115.23,115.23,0,0,0,1974.89,1717.37Z" transform="translate(-257.53 -117.07)"/><g class="cls-61"><path class="cls-24" d="M570.51,590.78v3.4c0,45.16,48,74.14,88,53.1h0a60,60,0,0,0,32.06-53.1v-3.4c0-46.23-50.07-75.1-90.08-51.94h0A60,60,0,0,0,570.51,590.78Z" transform="translate(-257.53 -117.07)"/></g><path class="cls-62" d="M2715.23,1275v.86a15.22,15.22,0,0,0,22.3,13.46h0a15.21,15.21,0,0,0,8.12-13.46V1275a15.21,15.21,0,0,0-22.83-13.17h0A15.21,15.21,0,0,0,2715.23,1275Z" transform="translate(-257.53 -117.07)"/></g></g></svg>